<?xml version="1.0" encoding="utf-8"?>
<!-- Generator: Adobe Illustrator 27.5.0, SVG Export Plug-In . SVG Version: 6.00 Build 0)  -->
<svg version="1.1" xmlns="http://www.w3.org/2000/svg" xmlns:xlink="http://www.w3.org/1999/xlink" x="0px" y="0px"
	 viewBox="0 0 750 500" style="enable-background:new 0 0 750 500;" xml:space="preserve">
<g id="BACKGROUND">
	<rect style="fill-rule:evenodd;clip-rule:evenodd;fill:#1B222D;" width="750" height="500"/>
</g>
<g id="OBJECTS">
	<g>
		
			<ellipse transform="matrix(0.9092 -0.4164 0.4164 0.9092 16.4217 260.0373)" style="fill-rule:evenodd;clip-rule:evenodd;fill:#F1E858;" cx="604.296" cy="92.375" rx="51.497" ry="51.497"/>
		<path style="fill-rule:evenodd;clip-rule:evenodd;fill:#DA97C1;" d="M614.295,46.806c2.307,0.151,4.338,1.224,5.755,2.838
			c1.419,1.619,2.219,3.771,2.068,6.079c-0.151,2.308-1.225,4.34-2.84,5.757c-1.61,1.416-3.765,2.218-6.077,2.067
			c-2.311-0.151-4.344-1.227-5.758-2.838c-1.414-1.612-2.216-3.768-2.065-6.079c0.151-2.312,1.226-4.344,2.839-5.758
			C609.833,47.455,611.988,46.655,614.295,46.806L614.295,46.806z M583.01,85.812c2.534,0.166,4.763,1.344,6.318,3.115
			c1.557,1.776,2.435,4.139,2.27,6.673c-0.166,2.533-1.344,4.763-3.115,6.317c-1.776,1.557-4.139,2.436-6.673,2.27
			c-2.533-0.166-4.763-1.344-6.317-3.115c-1.557-1.776-2.435-4.14-2.27-6.673c0.166-2.534,1.344-4.763,3.115-6.318
			C578.113,86.525,580.477,85.646,583.01,85.812L583.01,85.812z M588.159,89.956c-1.289-1.47-3.142-2.448-5.251-2.586
			c-2.108-0.138-4.073,0.591-5.541,1.879c-1.472,1.29-2.45,3.143-2.588,5.252c-0.138,2.108,0.591,4.073,1.879,5.541
			c1.29,1.472,3.144,2.451,5.252,2.588c2.109,0.138,4.073-0.591,5.541-1.879c1.472-1.29,2.45-3.144,2.588-5.252
			C590.177,93.389,589.448,91.425,588.159,89.956L588.159,89.956z M571.738,69.828c1.473,0.096,2.768,0.78,3.669,1.808
			c0.902,1.028,1.411,2.401,1.315,3.873c-0.096,1.472-0.78,2.768-1.808,3.669c-1.031,0.9-2.403,1.411-3.874,1.315
			c-1.47-0.096-2.764-0.782-3.666-1.808c-0.903-1.032-1.415-2.404-1.319-3.874c0.096-1.471,0.782-2.764,1.808-3.666
			C568.893,70.241,570.267,69.731,571.738,69.828L571.738,69.828z M574.234,72.665c-0.639-0.728-1.556-1.212-2.597-1.281
			c-1.042-0.068-2.014,0.293-2.742,0.932c-0.727,0.636-1.212,1.554-1.281,2.597c-0.068,1.043,0.293,2.017,0.93,2.744
			c0.638,0.726,1.557,1.211,2.599,1.279c1.044,0.068,2.016-0.293,2.743-0.93c0.726-0.64,1.211-1.558,1.279-2.599
			C575.234,74.366,574.873,73.394,574.234,72.665L574.234,72.665z M614.193,48.363c-1.882-0.123-3.637,0.527-4.947,1.678
			c-1.313,1.155-2.188,2.809-2.311,4.69c-0.123,1.88,0.529,3.634,1.681,4.947c1.152,1.313,2.806,2.188,4.686,2.311
			c1.88,0.123,3.634-0.529,4.947-1.681c1.315-1.149,2.188-2.804,2.311-4.686C620.807,51.855,617.96,48.609,614.193,48.363z"/>
		<path style="fill-rule:evenodd;clip-rule:evenodd;fill:#DA97C1;" d="M642.613,57.976c6.507,7.249,10.967,16.328,12.547,26.29
			c-2.54,0.122-4.877,1.118-6.69,2.709c-2.109,1.85-3.512,4.505-3.709,7.526c-0.198,3.021,0.848,5.836,2.698,7.945
			c1.637,1.866,3.904,3.178,6.498,3.593c-5.793,21.14-24.606,36.544-46.792,37.754c0.055-0.352,0.093-0.71,0.117-1.073
			c0.219-3.344-0.938-6.46-2.986-8.793c-2.047-2.334-4.986-3.886-8.33-4.105c-3.341-0.218-6.457,0.94-8.793,2.986
			c-1.923,1.687-3.316,3.98-3.869,6.607c-9.123-4.073-16.792-10.704-22.158-18.928c21.911,2.447,30.362-1.56,38.386-17.964
			c8.506-17.391,24.091,3.831,30.877-23.785C633.616,65.686,638.429,60.168,642.613,57.976L642.613,57.976z M655.383,85.82
			c-2.234,0.073-4.292,0.934-5.882,2.329c-1.809,1.587-3.012,3.864-3.182,6.454c-0.169,2.59,0.728,5.005,2.315,6.813
			c1.434,1.635,3.43,2.775,5.713,3.104c0.686-2.839,1.14-5.773,1.337-8.786C655.903,92.365,655.793,89.05,655.383,85.82
			L655.383,85.82z M605.571,143.855c0.075-0.404,0.126-0.816,0.154-1.237c0.19-2.913-0.818-5.628-2.602-7.662
			c-1.784-2.033-4.345-3.387-7.258-3.577c-2.914-0.191-5.629,0.817-7.664,2.601c-1.748,1.536-2.994,3.646-3.429,6.062
			c5.02,2.055,10.453,3.347,16.165,3.721C602.495,143.864,604.039,143.892,605.571,143.855z"/>
		<path style="fill-rule:evenodd;clip-rule:evenodd;fill:#FFFFFF;" d="M621.186,99.293c2.708,0.177,4.761,2.517,4.584,5.226
			c-0.177,2.708-2.517,4.761-5.225,4.584c-2.709-0.177-4.762-2.517-4.584-5.226C616.138,101.168,618.478,99.116,621.186,99.293z"/>
	</g>
	<g>
		<path style="fill-rule:evenodd;clip-rule:evenodd;fill:#839AD5;" d="M120.997,105.716h508.987c1.212,0,2.203,0.991,2.203,2.203
			v290.826c0,1.211-0.991,2.203-2.203,2.203H120.997c-1.212,0-2.203-0.991-2.203-2.203V107.919
			C118.794,106.707,119.785,105.716,120.997,105.716z"/>
		<g>
			<rect x="118.794" y="118.443" style="fill-rule:evenodd;clip-rule:evenodd;fill:#DA97C1;" width="126.834" height="282.505"/>
			<g>
				<g>
					<path style="fill-rule:evenodd;clip-rule:evenodd;fill:#FFFFFF;" d="M162.015,323.68h65.291c2.14,0,3.89,1.751,3.89,3.89l0,0
						c0,2.14-1.75,3.891-3.89,3.891h-65.291c-2.14,0-3.89-1.751-3.89-3.891l0,0C158.125,325.431,159.876,323.68,162.015,323.68z"/>
					<path style="fill-rule:evenodd;clip-rule:evenodd;fill:#FFFFFF;" d="M143.898,267.466c3.554,0,6.452-2.898,6.452-6.452
						c0-3.554-2.898-6.452-6.452-6.452c-3.554,0-6.453,2.898-6.453,6.452C137.445,264.568,140.344,267.466,143.898,267.466z"/>
					<g>
						<path style="fill-rule:evenodd;clip-rule:evenodd;fill:#FFFFFF;" d="M162.015,254.562h65.291c2.14,0,3.89,1.751,3.89,3.89l0,0
							c0,2.14-1.75,3.891-3.89,3.891h-65.291c-2.14,0-3.89-1.751-3.89-3.891l0,0C158.125,256.313,159.876,254.562,162.015,254.562z"
							/>
						<path style="fill-rule:evenodd;clip-rule:evenodd;fill:#FFFFFF;" d="M160.57,267.977h30.899c1.345,0,2.445,1.1,2.445,2.445
							l0,0c0,1.345-1.1,2.445-2.445,2.445H160.57c-1.345,0-2.445-1.1-2.445-2.445l0,0
							C158.125,269.078,159.225,267.977,160.57,267.977z"/>
					</g>
					<path style="fill-rule:evenodd;clip-rule:evenodd;fill:#FFFFFF;" d="M214.146,267.977h-12.598c-1.345,0-2.445,1.1-2.445,2.445
						l0,0c0,1.345,1.1,2.445,2.445,2.445h12.598c1.345,0,2.445-1.1,2.445-2.445l0,0
						C216.591,269.078,215.491,267.977,214.146,267.977z"/>
					<g>
						<path style="fill-rule:evenodd;clip-rule:evenodd;fill:#FFFFFF;" d="M162.015,289.121h11.858c2.14,0,3.891,1.751,3.891,3.891
							l0,0c0,2.14-1.751,3.89-3.891,3.89h-11.858c-2.14,0-3.891-1.751-3.891-3.89l0,0
							C158.125,290.871,159.876,289.121,162.015,289.121z"/>
						<path style="fill-rule:evenodd;clip-rule:evenodd;fill:#FFFFFF;" d="M160.57,302.536h46.175c1.345,0,2.445,1.1,2.445,2.445
							l0,0c0,1.345-1.1,2.445-2.445,2.445H160.57c-1.345,0-2.445-1.1-2.445-2.445l0,0
							C158.125,303.636,159.225,302.536,160.57,302.536z"/>
					</g>
					<path style="fill-rule:evenodd;clip-rule:evenodd;fill:#FFFFFF;" d="M183.433,289.121h43.873c2.14,0,3.891,1.751,3.891,3.891
						l0,0c0,2.14-1.751,3.89-3.891,3.89h-43.873c-2.14,0-3.891-1.751-3.891-3.89l0,0
						C179.542,290.871,181.293,289.121,183.433,289.121z"/>
					<path style="fill-rule:evenodd;clip-rule:evenodd;fill:#FFFFFF;" d="M143.898,302.026c3.554,0,6.452-2.899,6.452-6.453
						c0-3.554-2.898-6.452-6.452-6.452c-3.554,0-6.453,2.898-6.453,6.452C137.445,299.127,140.344,302.026,143.898,302.026z"/>
					<path style="fill-rule:evenodd;clip-rule:evenodd;fill:#FFFFFF;" d="M143.898,336.584c3.554,0,6.452-2.898,6.452-6.452
						c0-3.554-2.898-6.452-6.452-6.452c-3.554,0-6.453,2.898-6.453,6.452C137.445,333.686,140.344,336.584,143.898,336.584z"/>
					<path style="fill-rule:evenodd;clip-rule:evenodd;fill:#FFFFFF;" d="M160.57,337.095h57.061c1.346,0,2.446,1.1,2.446,2.445l0,0
						c0,1.345-1.1,2.445-2.446,2.445H160.57c-1.346,0-2.445-1.1-2.445-2.445l0,0C158.125,338.195,159.225,337.095,160.57,337.095z"
						/>
				</g>
				<g>
					<path style="fill-rule:evenodd;clip-rule:evenodd;fill:#FFFFFF;" d="M146.821,161.806c0,0-2.075,68.176,1.778,71.14
						c3.853,2.964,66.398,3.261,68.472-1.186c2.075-4.446,1.482-72.029-4.446-72.622
						C206.697,158.545,148.007,155.877,146.821,161.806z"/>
					<path style="fill-rule:evenodd;clip-rule:evenodd;fill:#1B222D;" d="M182.211,201.04c12.694,0,23.395,8.534,26.678,20.178
						c0.521,1.846,0.178,3.657-0.979,5.187c-1.158,1.53-2.808,2.35-4.727,2.35h-41.944c-1.918,0-3.569-0.82-4.727-2.35
						c-1.158-1.529-1.499-3.341-0.979-5.187C158.816,209.574,169.517,201.04,182.211,201.04L182.211,201.04z M182.211,168.731
						c7.858,0,14.228,6.37,14.228,14.228c0,7.858-6.37,14.228-14.228,14.228c-7.858,0-14.228-6.37-14.228-14.228
						C167.983,175.1,174.353,168.731,182.211,168.731z"/>
				</g>
			</g>
		</g>
		<g>
			<g>
				<rect x="505.353" y="105.716" style="fill-rule:evenodd;clip-rule:evenodd;fill:#FFFFFF;" width="126.834" height="236.842"/>
				<g>
					<g>
						<path style="fill-rule:evenodd;clip-rule:evenodd;fill:#6BB68E;" d="M556.452,164.553h28.773c2.684,0,4.881,2.196,4.881,4.881
							v0c0,2.684-2.196,4.881-4.881,4.881h-28.773c-2.684,0-4.881-2.197-4.881-4.881v0
							C551.572,166.749,553.768,164.553,556.452,164.553z"/>
						<path style="fill-rule:evenodd;clip-rule:evenodd;fill:#1B222D;" d="M599.186,164.553h14.446c2.684,0,4.881,2.196,4.881,4.881
							v0c0,2.684-2.196,4.881-4.881,4.881h-14.446c-2.684,0-4.881-2.197-4.881-4.881v0
							C594.305,166.749,596.501,164.553,599.186,164.553z"/>
						<path style="fill-rule:evenodd;clip-rule:evenodd;fill:#1B222D;" d="M556.452,180.913h41.617c2.684,0,4.881,2.197,4.881,4.881
							v0c0,2.684-2.196,4.881-4.881,4.881h-41.617c-2.684,0-4.881-2.197-4.881-4.881v0
							C551.572,183.109,553.768,180.913,556.452,180.913z"/>
						<path style="fill-rule:evenodd;clip-rule:evenodd;fill:#6BB68E;" d="M520.82,163.04h13.338c4.347,0,7.904,3.557,7.904,7.904
							v13.338c0,4.347-3.557,7.904-7.904,7.904H520.82c-4.348,0-7.905-3.557-7.905-7.904v-13.338
							C512.915,166.597,516.472,163.04,520.82,163.04z"/>
					</g>
					<g>
						<path style="fill-rule:evenodd;clip-rule:evenodd;fill:#92D99C;" d="M556.452,201.934h57.18c2.684,0,4.881,2.197,4.881,4.881
							l0,0c0,2.684-2.196,4.881-4.881,4.881h-57.18c-2.684,0-4.881-2.197-4.881-4.881l0,0
							C551.572,204.131,553.768,201.934,556.452,201.934z"/>
						<path style="fill-rule:evenodd;clip-rule:evenodd;fill:#92D99C;" d="M556.452,218.294h10.12c2.684,0,4.881,2.196,4.881,4.881
							v0c0,2.684-2.196,4.881-4.881,4.881h-10.12c-2.684,0-4.881-2.196-4.881-4.881v0
							C551.572,220.491,553.768,218.294,556.452,218.294z"/>
						<path style="fill-rule:evenodd;clip-rule:evenodd;fill:#1B222D;" d="M580.408,218.294h13.336c2.684,0,4.88,2.196,4.88,4.881v0
							c0,2.684-2.196,4.881-4.88,4.881h-13.336c-2.684,0-4.881-2.196-4.881-4.881v0
							C575.527,220.491,577.723,218.294,580.408,218.294z"/>
						<path style="fill-rule:evenodd;clip-rule:evenodd;fill:#92D99C;" d="M520.82,200.421h13.338c4.347,0,7.904,3.557,7.904,7.905
							v13.339c0,4.347-3.557,7.904-7.904,7.904H520.82c-4.348,0-7.905-3.557-7.905-7.904v-13.339
							C512.915,203.979,516.472,200.421,520.82,200.421z"/>
					</g>
					<g>
						<path style="fill-rule:evenodd;clip-rule:evenodd;fill:#839AD5;" d="M556.452,239.316h48.311c2.684,0,4.881,2.197,4.881,4.881
							v0c0,2.684-2.196,4.881-4.881,4.881h-48.311c-2.684,0-4.881-2.196-4.881-4.881v0
							C551.572,241.513,553.768,239.316,556.452,239.316z"/>
						<path style="fill-rule:evenodd;clip-rule:evenodd;fill:#1B222D;" d="M556.452,255.676h31.363c2.684,0,4.881,2.196,4.881,4.881
							v0c0,2.684-2.196,4.881-4.881,4.881h-31.363c-2.684,0-4.881-2.196-4.881-4.881v0
							C551.572,257.872,553.768,255.676,556.452,255.676z"/>
						<path style="fill-rule:evenodd;clip-rule:evenodd;fill:#839AD5;" d="M520.82,237.803h13.338c4.347,0,7.904,3.557,7.904,7.905
							v13.338c0,4.347-3.557,7.904-7.904,7.904H520.82c-4.348,0-7.905-3.557-7.905-7.904v-13.338
							C512.915,241.36,516.472,237.803,520.82,237.803z"/>
					</g>
					<g>
						<path style="fill-rule:evenodd;clip-rule:evenodd;fill:#E07074;" d="M520.82,275.184h13.338c4.347,0,7.904,3.557,7.904,7.905
							v13.339c0,4.347-3.557,7.904-7.904,7.904H520.82c-4.348,0-7.905-3.557-7.905-7.904v-13.339
							C512.915,278.741,516.472,275.184,520.82,275.184z"/>
						<path style="fill-rule:evenodd;clip-rule:evenodd;fill:#1B222D;" d="M556.452,275.184h28.773c2.684,0,4.881,2.197,4.881,4.881
							v0c0,2.684-2.196,4.88-4.881,4.88h-28.773c-2.684,0-4.881-2.196-4.881-4.88v0
							C551.572,277.381,553.768,275.184,556.452,275.184z"/>
						<path style="fill-rule:evenodd;clip-rule:evenodd;fill:#E07074;" d="M599.186,275.184h14.446c2.684,0,4.881,2.197,4.881,4.881
							v0c0,2.684-2.196,4.88-4.881,4.88h-14.446c-2.684,0-4.881-2.196-4.881-4.88v0
							C594.305,277.381,596.501,275.184,599.186,275.184z"/>
						<path style="fill-rule:evenodd;clip-rule:evenodd;fill:#E07074;" d="M556.452,291.544h41.617c2.684,0,4.881,2.196,4.881,4.881
							v0c0,2.684-2.196,4.881-4.881,4.881h-41.617c-2.684,0-4.881-2.196-4.881-4.881v0
							C551.572,293.74,553.768,291.544,556.452,291.544z"/>
					</g>
				</g>
			</g>
			<g>
				<rect x="506.061" y="342.558" style="fill-rule:evenodd;clip-rule:evenodd;fill:#92D99C;" width="126.126" height="58.389"/>
				<path style="fill-rule:evenodd;clip-rule:evenodd;fill:#FFFFFF;" d="M536.665,342.558h3.012
					c-6.636,18.703-22.591,19.438-33.615,17.364v-2.861C515.957,358.993,530.319,358.559,536.665,342.558L536.665,342.558z
					 M544.918,342.558h2.688c0.576,5.385,2.647,9.885,7.661,10.983c2.925,0.64,5.762,1.021,8.479,1.385
					c12.674,1.701,22.932,3.078,25.467,25.266c0.938,8.21,2.494,15.189,4.868,20.755h-3.018c-2.236-5.643-3.722-12.504-4.629-20.438
					c-2.289-20.027-11.581-21.275-23.061-22.816c-2.807-0.376-5.737-0.77-8.698-1.418
					C548.123,354.842,545.567,349.121,544.918,342.558L544.918,342.558z M575.402,342.558c2.645,5.481,9.133,12.331,25.048,12.016
					c10.874-0.216,16.712-5.664,19.818-12.016h-3.227c-2.911,5.016-7.957,9.054-16.646,9.226c-13.19,0.261-19.138-4.752-21.82-9.226
					H575.402L575.402,342.558z M632.187,357.84v2.83c-11.554-3.353-23.194-3.208-26.209,9.141
					c-3.837,15.717,1.841,25.594,7.331,31.137h-3.774c-5.35-6.301-10-16.517-6.27-31.793
					C606.758,354.848,619.604,354.367,632.187,357.84L632.187,357.84z M632.187,370.105c-21.805-0.887-21.406,20.927,0,22.689
					v-2.688c-17.583-1.517-16.981-17.725,0-17.333V370.105L632.187,370.105z M569.199,400.948c-0.7-10.096,5.191-26.047-0.92-34.037
					c-8.149-10.656-27.904-6.086-37.128,0.967c-6.472,4.95-16.821,6.441-25.09,6.754v2.778c8.71-0.334,19.757-1.936,26.786-7.31
					c7.931-6.065,26.127-10.757,33.211-1.493c4.994,6.531-0.174,23.406,0.285,32.342H569.199L569.199,400.948z M560.04,400.948
					c3.142-7.201,3.697-17.091-15.57-18.78c-16.584-1.455-26.56,9.208-32.107,18.78h3.245c5.291-8.493,14.29-17.248,28.62-15.991
					c16.319,1.431,15.414,9.999,12.642,15.991H560.04z"/>
			</g>
		</g>
		<g>
			<path style="fill-rule:evenodd;clip-rule:evenodd;fill:#FFFFFF;" d="M122.393,105.716h506.196c1.979,0,3.599,1.62,3.599,3.599
				v33.117c0,1.979-1.619,3.598-3.599,3.598H122.393c-1.979,0-3.599-1.619-3.599-3.598v-33.117
				C118.794,107.336,120.413,105.716,122.393,105.716z"/>
			<circle style="fill-rule:evenodd;clip-rule:evenodd;fill:#E07074;" cx="139.942" cy="125.873" r="7.943"/>
			
				<ellipse transform="matrix(0.9871 -0.1602 0.1602 0.9871 -17.9765 28.7439)" style="fill-rule:evenodd;clip-rule:evenodd;fill:#F1E858;" cx="169.299" cy="125.873" rx="7.943" ry="7.943"/>
			<circle style="fill-rule:evenodd;clip-rule:evenodd;fill:#6BB68E;" cx="198.655" cy="125.873" r="7.943"/>
		</g>
		<path style="fill-rule:evenodd;clip-rule:evenodd;fill:#1B222D;" d="M512.682,341.158h112.177c3.265,0,5.928-2.663,5.928-5.928
			V153.358c0-3.265-2.663-5.928-5.928-5.928h-86.787h-25.391c-3.265,0-5.928,2.663-5.928,5.928v181.871
			C506.754,338.495,509.417,341.158,512.682,341.158L512.682,341.158z M633.588,341.158v2.801v52.461v5.928h-5.928H503.953H247.029
			H123.322h-0.001c-3.265,0-5.927-2.663-5.928-5.927c-0.016-83.93-0.017-167.861-0.004-251.791h0.005v-34.385
			c0-3.265,2.663-5.928,5.928-5.928H627.66c3.265,0,5.928,2.663,5.928,5.928v34.385v2.801V341.158L633.588,341.158z
			 M503.953,399.547V153.358c0-3.265-2.663-5.928-5.928-5.928l0,0h-23.978H252.957c-3.265,0-5.928,2.663-5.928,5.928v240.261
			c0,3.265,2.663,5.928,5.928,5.928h207.454h37.614H503.953L503.953,399.547z M624.859,399.547c3.122,0,5.694-2.436,5.913-5.505
			v-44.58c-0.218-3.069-2.79-5.505-5.913-5.505H512.697c-3.265,0-5.928,2.663-5.928,5.928v43.732c0,3.265,2.663,5.928,5.928,5.928
			H624.859L624.859,399.547z M244.228,393.619V153.358c0-3.265-2.663-5.928-5.928-5.928H126.123c-3.265,0-5.928,2.663-5.928,5.928
			v240.261c0,3.265,2.663,5.928,5.928,5.928H238.3C241.565,399.547,244.228,396.884,244.228,393.619L244.228,393.619z
			 M126.123,144.63h118.105h2.801h256.924h2.801h118.105c3.265,0,5.928-2.663,5.928-5.928v-25.656c0-3.265-2.663-5.928-5.928-5.928
			H126.123c-3.265,0-5.928,2.663-5.928,5.928v25.656C120.195,141.966,122.858,144.63,126.123,144.63z"/>
		<g>
			<g>
				<g>
					<path style="fill-rule:evenodd;clip-rule:evenodd;fill:#FFFFFF;" d="M261.525,301.814h227.932c1.987,0,3.613-1.626,3.613-3.613
						v-43.659c0-1.987-1.625-3.613-3.613-3.613H261.525c-1.987,0-3.613,1.626-3.613,3.613v43.659
						C257.912,300.188,259.538,301.814,261.525,301.814z"/>
					<path style="fill-rule:evenodd;clip-rule:evenodd;fill:#839AD5;" d="M282.386,294.422c9.942,0,18.051-8.109,18.051-18.052
						c0-9.942-8.109-18.051-18.051-18.051c-9.942,0-18.051,8.109-18.051,18.051C264.335,286.313,272.444,294.422,282.386,294.422z"
						/>
					<g>
						<path style="fill-rule:evenodd;clip-rule:evenodd;fill:#839AD5;" d="M314.132,258.32h57.18c2.684,0,4.881,2.196,4.881,4.881v0
							c0,2.684-2.196,4.881-4.881,4.881h-57.18c-2.684,0-4.881-2.196-4.881-4.881v0C309.251,260.516,311.447,258.32,314.132,258.32z
							"/>
						<path style="fill-rule:evenodd;clip-rule:evenodd;fill:#839AD5;" d="M403.316,258.32h-17.904
							c-2.684,0-4.881,2.196-4.881,4.881v0c0,2.684,2.196,4.881,4.881,4.881h17.904c2.684,0,4.881-2.196,4.881-4.881v0
							C408.196,260.516,406,258.32,403.316,258.32z"/>
					</g>
					<path style="fill-rule:evenodd;clip-rule:evenodd;fill:#839AD5;" d="M314.132,275.611h35.581c2.684,0,4.88,2.196,4.88,4.881v0
						c0,2.684-2.196,4.88-4.88,4.88h-35.581c-2.685,0-4.881-2.196-4.881-4.88v0C309.251,277.807,311.447,275.611,314.132,275.611z"
						/>
				</g>
				<g>
					<path style="fill-rule:evenodd;clip-rule:evenodd;fill:#1B222D;" d="M263.945,160.267h223.091c3.318,0,6.033,2.715,6.033,6.033
						v72.907c0,3.319-2.715,6.033-6.033,6.033H263.945c-3.319,0-6.033-2.714-6.033-6.033V166.3
						C257.912,162.982,260.627,160.267,263.945,160.267z"/>
					<g>
						<path style="fill-rule:evenodd;clip-rule:evenodd;fill:#6BB68E;" d="M451.863,180.765c3.796,0,6.892-3.096,6.892-6.892
							c0-3.796-3.096-6.892-6.892-6.892c-3.796,0-6.891,3.096-6.891,6.892C444.971,177.669,448.067,180.765,451.863,180.765z"/>
						<path style="fill-rule:evenodd;clip-rule:evenodd;fill:#FFFFFF;" d="M438.351,150.061c2.603,0,4.714,2.11,4.714,4.713
							c0,0.603-0.113,1.179-0.319,1.709c10.075,5.084,20.148,10.172,30.22,15.261c0.836-1.317,2.307-2.192,3.983-2.192
							c2.603,0,4.713,2.11,4.713,4.714c0,2.603-2.11,4.714-4.713,4.714c-1.69,0-3.171-0.889-4.004-2.225l-31.16,15.419
							c0.053,0.198,0.082,0.404,0.082,0.618c0,1.302-1.055,2.357-2.357,2.357c-1.302,0-2.357-1.055-2.357-2.357
							c0-1.121,0.783-2.06,1.832-2.298l-0.946-31.016c-2.458-0.16-4.402-2.204-4.402-4.703
							C433.637,152.171,435.748,150.061,438.351,150.061L438.351,150.061z M428.641,175.663c1.289,0,2.334,1.045,2.334,2.334
							s-1.045,2.334-2.334,2.334c-1.289,0-2.334-1.045-2.334-2.334S427.351,175.663,428.641,175.663L428.641,175.663z
							 M464.84,155.433c-0.777,0-1.408,0.631-1.408,1.408c0,0.777,0.63,1.408,1.408,1.408c0.778,0,1.408-0.63,1.408-1.408
							C466.249,156.063,465.618,155.433,464.84,155.433L464.84,155.433z M472.541,175.94c-0.198-0.52-0.306-1.085-0.306-1.674
							c0-0.603,0.113-1.18,0.319-1.71l-30.22-15.261c-0.734,1.158-1.961,1.975-3.386,2.155l0.947,31.016
							c0.603,0.099,1.13,0.427,1.487,0.892L472.541,175.94z"/>
					</g>
					<path style="fill-rule:evenodd;clip-rule:evenodd;fill:#839AD5;" d="M480.815,201.492c2.883,0,5.234-2.351,5.234-5.234
						c0-2.883-2.351-5.234-5.234-5.234c-2.882,0-5.233,2.351-5.233,5.234C475.582,199.141,477.933,201.492,480.815,201.492z"/>
					<g>
						<path style="fill-rule:evenodd;clip-rule:evenodd;fill:#FFFFFF;" d="M437.34,221.492
							c3.123-11.657,15.105-18.575,26.762-15.451c11.657,3.123,18.575,15.105,15.451,26.762c-1.416,5.284-4.652,9.594-8.853,12.437
							h-24.515C438.693,240.163,434.866,230.726,437.34,221.492z"/>
						<path style="fill-rule:evenodd;clip-rule:evenodd;fill:#839AD5;" d="M476.896,215.44c3.159,4.98,4.305,11.216,2.658,17.362
							c-1.416,5.284-4.652,9.594-8.853,12.437h-24.515c-0.471-0.32-0.928-0.656-1.369-1.008c1.583-0.708,2.889-1.943,3.72-3.553
							c2.353-4.561,15.166-1.624,14.45-8.429c-0.716-6.806,0.874-5.469,8.843-10.016C475.517,220.13,476.694,217.577,476.896,215.44
							z"/>
						<path style="fill-rule:evenodd;clip-rule:evenodd;fill:#839AD5;" d="M460.222,214.837c1.085,0,1.964,0.879,1.964,1.964
							c0,1.085-0.879,1.965-1.964,1.965c-1.085,0-1.964-0.879-1.964-1.965C458.258,215.717,459.137,214.837,460.222,214.837
							L460.222,214.837z M453.021,205.978c0.228-0.058,0.457-0.113,0.686-0.165c0.212,0.535,0.531,1.016,0.93,1.416
							c0.754,0.754,1.797,1.221,2.949,1.221c1.152,0,2.195-0.467,2.949-1.221c0.471-0.472,0.83-1.056,1.033-1.709
							c0.232,0.034,0.464,0.071,0.697,0.113c-0.232,0.801-0.662,1.517-1.236,2.091c-0.883,0.881-2.1,1.426-3.444,1.426
							c-1.344,0-2.561-0.545-3.442-1.426C453.654,207.233,453.267,206.64,453.021,205.978L453.021,205.978z M478.701,235.35
							c-0.09,0.222-0.182,0.443-0.279,0.66c-0.684-0.511-1.533-0.814-2.453-0.814c-1.131,0-2.155,0.459-2.896,1.2
							c-0.741,0.741-1.2,1.766-1.2,2.897c0,1.132,0.458,2.156,1.199,2.896c0.207,0.208,0.437,0.393,0.685,0.552
							c-0.171,0.167-0.343,0.332-0.519,0.493c-0.236-0.164-0.456-0.348-0.658-0.55c-0.869-0.87-1.406-2.069-1.406-3.391
							c0-1.325,0.537-2.524,1.405-3.392c0.867-0.868,2.067-1.405,3.391-1.405C476.984,234.496,477.926,234.812,478.701,235.35
							L478.701,235.35z M470.559,218.341c1.345,0,2.563,0.545,3.444,1.426c0.881,0.881,1.427,2.099,1.427,3.444
							c0,1.345-0.545,2.563-1.427,3.444c-0.883,0.881-2.1,1.426-3.444,1.426c-1.344,0-2.562-0.546-3.443-1.426
							c-0.882-0.883-1.428-2.1-1.428-3.444c0-1.344,0.545-2.562,1.426-3.443C467.996,218.886,469.214,218.341,470.559,218.341
							L470.559,218.341z M473.508,220.262c-0.754-0.755-1.797-1.221-2.949-1.221c-1.151,0-2.194,0.467-2.949,1.221
							c-0.755,0.754-1.221,1.797-1.221,2.949c0,1.152,0.467,2.195,1.221,2.949c0.754,0.754,1.797,1.221,2.949,1.221
							c1.152,0,2.195-0.467,2.949-1.221c0.754-0.755,1.221-1.798,1.221-2.949C474.729,222.06,474.262,221.017,473.508,220.262
							L473.508,220.262z M449.143,218.415c1.324,0,2.522,0.537,3.39,1.405c0.869,0.869,1.406,2.068,1.406,3.392
							c0,1.324-0.537,2.524-1.405,3.391c-0.868,0.868-2.067,1.405-3.392,1.405c-1.323,0-2.522-0.537-3.39-1.405
							c-0.869-0.87-1.406-2.069-1.406-3.391c0-1.325,0.537-2.524,1.405-3.392C446.619,218.952,447.818,218.415,449.143,218.415
							L449.143,218.415z M452.04,220.314c-0.741-0.741-1.766-1.199-2.897-1.199c-1.131,0-2.156,0.459-2.896,1.2
							c-0.741,0.741-1.2,1.765-1.2,2.897c0,1.132,0.458,2.156,1.198,2.896c0.741,0.742,1.766,1.2,2.898,1.2
							c1.131,0,2.155-0.459,2.897-1.2c0.741-0.74,1.199-1.765,1.199-2.896C453.239,222.08,452.781,221.055,452.04,220.314
							L452.04,220.314z M452.996,236.2c0.976,0,1.861,0.396,2.501,1.035c0.64,0.64,1.036,1.524,1.036,2.501
							c0,0.977-0.396,1.861-1.036,2.501c-0.641,0.64-1.525,1.036-2.501,1.036c-0.975,0-1.86-0.396-2.499-1.036
							c-0.641-0.641-1.037-1.525-1.037-2.501c0-0.976,0.396-1.86,1.036-2.499C451.135,236.596,452.02,236.2,452.996,236.2
							L452.996,236.2z M455.002,237.731c-0.513-0.513-1.223-0.831-2.006-0.831c-0.783,0-1.493,0.318-2.006,0.831
							c-0.513,0.512-0.831,1.222-0.831,2.006c0,0.784,0.318,1.493,0.83,2.006c0.513,0.513,1.223,0.83,2.006,0.83
							c0.784,0,1.493-0.318,2.006-0.83c0.513-0.513,0.83-1.223,0.83-2.006C455.833,238.954,455.515,238.244,455.002,237.731z"/>
						<path style="fill-rule:evenodd;clip-rule:evenodd;fill:#FFFFFF;" d="M478.701,235.35l-0.004,0.01l-0.004,0.01l-0.055,0.135
							l-0.004,0.01l-0.004,0.011l-0.005,0.01l-0.004,0.01c-0.047,0.114-0.095,0.227-0.144,0.34l-0.004,0.01l-0.005,0.01l-0.004,0.01
							l-0.005,0.01l-0.027,0.061l-0.005,0.011l-0.004,0.01c-0.684-0.511-1.533-0.814-2.453-0.814c-1.131,0-2.155,0.459-2.896,1.2
							c-0.741,0.741-1.2,1.766-1.2,2.897c0,1.132,0.458,2.156,1.199,2.896c0.207,0.208,0.437,0.393,0.685,0.552l-0.008,0.008
							l-0.008,0.008l-0.008,0.008l-0.008,0.008l-0.008,0.008l-0.008,0.008l-0.008,0.008l-0.008,0.007l-0.008,0.008l-0.008,0.008
							l-0.016,0.016l-0.008,0.008l-0.161,0.155l-0.008,0.007l-0.008,0.008l-0.008,0.008l-0.008,0.008l-0.008,0.008l-0.204,0.191
							l-0.008,0.007c-0.236-0.164-0.456-0.348-0.658-0.55c-0.869-0.87-1.406-2.069-1.406-3.391c0-1.325,0.537-2.524,1.405-3.392
							c0.867-0.868,2.067-1.405,3.391-1.405C476.984,234.496,477.926,234.812,478.701,235.35L478.701,235.35z M449.463,239.572
							c0.234-0.187,0.494-0.355,0.776-0.508c-0.052,0.215-0.08,0.441-0.08,0.672c0,0.784,0.318,1.493,0.83,2.006
							c0.513,0.513,1.223,0.83,2.006,0.83c0.784,0,1.493-0.318,2.006-0.83c0.513-0.513,0.83-1.223,0.83-2.006
							c0-0.783-0.318-1.493-0.831-2.006l-0.051-0.05l0.808-0.153c0.484,0.605,0.774,1.373,0.774,2.208
							c0,0.977-0.396,1.861-1.036,2.501c-0.641,0.64-1.525,1.036-2.501,1.036c-0.975,0-1.86-0.396-2.499-1.036
							c-0.641-0.641-1.037-1.525-1.037-2.501C449.46,239.682,449.461,239.627,449.463,239.572L449.463,239.572z M466.111,225.197
							c0.198-0.101,0.407-0.206,0.626-0.314c0.21,0.48,0.508,0.913,0.873,1.278c0.754,0.754,1.797,1.221,2.949,1.221
							c1.152,0,2.195-0.467,2.949-1.221c0.754-0.755,1.221-1.798,1.221-2.949c0-0.912-0.294-1.756-0.79-2.443
							c0.184-0.157,0.357-0.316,0.52-0.475c0.609,0.813,0.97,1.823,0.97,2.918c0,1.345-0.545,2.563-1.427,3.444
							c-0.883,0.881-2.1,1.426-3.444,1.426c-1.344,0-2.562-0.546-3.443-1.426C466.698,226.237,466.356,225.743,466.111,225.197z"/>
					</g>
					<g>
						<path style="fill-rule:evenodd;clip-rule:evenodd;fill:#FFFFFF;" d="M404.316,218.821c8.979,0,16.303-7.323,16.303-16.303
							c0-8.979-7.324-16.303-16.303-16.303c-8.979,0-16.303,7.324-16.303,16.303C388.013,211.497,395.337,218.821,404.316,218.821z"
							/>
						<path style="fill-rule:evenodd;clip-rule:evenodd;fill:#839AD5;" d="M406.534,187.916c0.732,0,1.396,0.297,1.876,0.778
							c0.482,0.482,0.779,1.146,0.779,1.878c0,0.732-0.297,1.396-0.778,1.877c-0.48,0.48-1.144,0.778-1.877,0.778
							c-0.733,0-1.397-0.298-1.878-0.778c-0.48-0.48-0.778-1.144-0.778-1.878c0-0.733,0.298-1.397,0.778-1.878
							C405.138,188.214,405.802,187.916,406.534,187.916L406.534,187.916z M397.456,200.885c0.804,0,1.532,0.326,2.06,0.854
							c0.529,0.529,0.855,1.257,0.855,2.061c0,0.803-0.326,1.532-0.854,2.06c-0.529,0.529-1.257,0.855-2.061,0.855
							c-0.803,0-1.532-0.326-2.06-0.854c-0.528-0.529-0.854-1.258-0.854-2.061c0-0.804,0.326-1.532,0.854-2.06
							C395.924,201.211,396.653,200.885,397.456,200.885L397.456,200.885z M399.168,202.087c-0.437-0.438-1.043-0.708-1.712-0.708
							c-0.669,0-1.275,0.271-1.712,0.708c-0.438,0.438-0.709,1.044-0.709,1.713c0,0.669,0.271,1.275,0.708,1.711
							c0.438,0.438,1.044,0.709,1.712,0.709c0.669,0,1.275-0.271,1.711-0.708c0.439-0.438,0.709-1.044,0.709-1.713
							C399.877,203.13,399.606,202.525,399.168,202.087L399.168,202.087z M393.565,196.068c0.467,0,0.89,0.19,1.197,0.495
							c0.306,0.306,0.495,0.729,0.495,1.197c0,0.467-0.189,0.89-0.495,1.196c-0.307,0.306-0.73,0.496-1.197,0.496
							c-0.466,0-0.889-0.19-1.195-0.496c-0.307-0.307-0.497-0.73-0.497-1.196c0-0.467,0.19-0.889,0.495-1.195
							C392.675,196.257,393.099,196.068,393.565,196.068L393.565,196.068z M394.412,196.913c-0.217-0.217-0.517-0.351-0.847-0.351
							c-0.33,0-0.63,0.134-0.847,0.351c-0.217,0.216-0.351,0.516-0.351,0.847c0,0.331,0.134,0.631,0.35,0.848
							c0.216,0.216,0.517,0.35,0.847,0.35c0.331,0,0.631-0.134,0.848-0.35c0.216-0.217,0.35-0.517,0.35-0.848
							C394.763,197.429,394.629,197.13,394.412,196.913L394.412,196.913z M406.534,188.41c-0.597,0-1.138,0.242-1.528,0.632
							c-0.391,0.392-0.633,0.933-0.633,1.529c0,0.597,0.242,1.137,0.633,1.528c0.391,0.391,0.931,0.633,1.528,0.633
							c0.596,0,1.137-0.242,1.528-0.633c0.391-0.39,0.633-0.931,0.633-1.528C408.695,189.377,407.729,188.41,406.534,188.41z"/>
						<path style="fill-rule:evenodd;clip-rule:evenodd;fill:#839AD5;" d="M415.71,190.86c2.205,2.156,3.802,4.932,4.507,8.046
							c-0.8,0.091-1.517,0.454-2.057,0.994c-0.628,0.628-1.016,1.495-1.016,2.454c0,0.958,0.389,1.826,1.016,2.454
							c0.556,0.556,1.299,0.924,2.127,1.001c-1.393,6.798-7.019,12.053-14.002,12.893c0.01-0.112,0.015-0.226,0.015-0.341
							c0-1.061-0.43-2.021-1.125-2.716c-0.695-0.695-1.655-1.125-2.716-1.125c-1.06,0-2.02,0.43-2.716,1.125
							c-0.573,0.573-0.966,1.326-1.086,2.167c-2.966-1.098-5.526-3.035-7.391-5.522c6.972,0.32,9.559-1.12,11.755-6.468
							c2.328-5.67,7.69,0.713,9.263-8.151C413.027,193.482,414.434,191.639,415.71,190.86L415.71,190.86z M420.319,199.392
							c-0.704,0.069-1.337,0.383-1.81,0.857c-0.539,0.539-0.872,1.283-0.872,2.104c0,0.822,0.333,1.566,0.872,2.105
							c0.487,0.487,1.141,0.806,1.869,0.863c0.158-0.911,0.241-1.847,0.241-2.803C420.619,201.449,420.516,200.404,420.319,199.392
							L420.319,199.392z M405.782,218.755c0.015-0.129,0.023-0.261,0.023-0.394c0-0.924-0.375-1.761-0.98-2.367
							c-0.606-0.606-1.442-0.98-2.367-0.98c-0.924,0-1.762,0.374-2.367,0.98c-0.521,0.521-0.871,1.214-0.958,1.986
							c1.628,0.546,3.371,0.841,5.183,0.841C404.81,218.821,405.299,218.798,405.782,218.755z"/>
						<path style="fill-rule:evenodd;clip-rule:evenodd;fill:#FFFFFF;" d="M409.795,207.467c0.857,0,1.556-0.699,1.556-1.556
							c0-0.857-0.699-1.556-1.556-1.556c-0.857,0-1.556,0.699-1.556,1.556C408.239,206.768,408.938,207.467,409.795,207.467z"/>
					</g>
					<g>
						<circle style="fill-rule:evenodd;clip-rule:evenodd;fill:#FFFFFF;" cx="419.177" cy="232.481" r="1.26"/>
						<path style="fill-rule:evenodd;clip-rule:evenodd;fill:#FFFFFF;" d="M392.647,233.889c0.367,0,0.667-0.3,0.667-0.667
							c0-0.367-0.3-0.667-0.667-0.667c-0.367,0-0.667,0.3-0.667,0.667C391.98,233.589,392.28,233.889,392.647,233.889z"/>
						<circle style="fill-rule:evenodd;clip-rule:evenodd;fill:#FFFFFF;" cx="388.869" cy="171.048" r="0.889"/>
					</g>
					<g>
						<path style="fill-rule:evenodd;clip-rule:evenodd;fill:#FFFFFF;" d="M275.729,172.929h28.773c2.684,0,4.881,2.197,4.881,4.881
							l0,0c0,2.684-2.196,4.881-4.881,4.881h-28.773c-2.684,0-4.881-2.197-4.881-4.881l0,0
							C270.849,175.126,273.045,172.929,275.729,172.929z"/>
						<path style="fill-rule:evenodd;clip-rule:evenodd;fill:#F1E858;" d="M275.729,189.289h41.617c2.684,0,4.881,2.196,4.881,4.881
							v0c0,2.684-2.196,4.881-4.881,4.881h-41.617c-2.684,0-4.881-2.196-4.881-4.881v0
							C270.849,191.485,273.045,189.289,275.729,189.289z"/>
					</g>
				</g>
			</g>
			<g>
				<g>
					<path style="fill-rule:evenodd;clip-rule:evenodd;fill:#FFFFFF;" d="M257.912,312.849h117.579v87.294
						c0,7.146-5.847,12.993-12.993,12.993H257.912V312.849z"/>
					<path style="fill-rule:evenodd;clip-rule:evenodd;fill:#839AD5;" d="M270.683,379.081v20.575c0,0-1.575,1.996,1.668,1.934
						c3.242-0.062,15.408-0.831,15.408-0.831s1.05-0.596,0.803-3.563c-0.247-2.968,0.12-16.535-0.431-17.478
						c-0.551-0.944-2.531-0.962-3.705-0.926C283.251,378.826,270.683,379.081,270.683,379.081z"/>
					<path style="fill-rule:evenodd;clip-rule:evenodd;fill:#92D99C;" d="M325.941,355.542v20.575c0,0-1.575,1.908,1.667,2.028
						c3.242,0.119,15.408,0.03,15.408,0.03s1.05-0.537,0.802-3.518c-0.247-2.982,0.12-16.529-0.431-17.503
						c-0.551-0.974-2.531-1.103-3.705-1.133C338.509,355.99,325.941,355.542,325.941,355.542z"/>
					<path style="fill-rule:evenodd;clip-rule:evenodd;fill:#839AD5;" d="M270.233,312.849h0.7v41.466
						c0,0.653,0.533,1.186,1.186,1.186h15.376c0.653,0,1.186-0.533,1.186-1.186v-41.466h0.7v41.466c0,0.653,0.533,1.186,1.186,1.186
						h15.376c0.653,0,1.186-0.533,1.186-1.186v-41.466h0.7v41.466c0,0.653,0.533,1.186,1.185,1.186h15.376
						c0.653,0,1.186-0.533,1.186-1.186v-41.466h0.7v41.466c0,0.653,0.533,1.186,1.186,1.186h15.376c0.653,0,1.186-0.533,1.186-1.186
						v-41.466h0.7v41.466c0,0.653,0.533,1.186,1.185,1.186h15.377c0.653,0,1.186-0.533,1.186-1.186l-0.001-41.466h0.7v41.466
						c0,0.653,0.533,1.186,1.186,1.186h11.136v0.7h-11.136c-0.653,0-1.186,0.533-1.186,1.186v20.024
						c0,0.653,0.533,1.186,1.186,1.186h11.136v0.7h-11.136c-0.653,0-1.186,0.533-1.186,1.185v17.66c-0.001,0.494,0,1.159-0.059,1.92
						c-0.008,0.108-0.018,0.218-0.029,0.33c-0.033,0.345,0.07,0.655,0.302,0.911c0.233,0.257,0.531,0.388,0.878,0.388h11.135
						c-0.028,0.235-0.063,0.469-0.103,0.7h-11.626c-0.532,0-0.983,0.335-1.136,0.845c-1.087,3.621-4.031,7.89-11.993,9.865
						c-0.098,0.024-0.185,0.035-0.286,0.035h-3.773c9.734-1.242,13.544-5.379,15.033-9.12c0.15-0.376,0.107-0.768-0.12-1.104
						c-0.228-0.335-0.576-0.52-0.981-0.52h-14.506c-0.653,0-1.185,0.533-1.185,1.186v9.559h-0.7v-9.559
						c0-0.653-0.533-1.186-1.186-1.186h-15.376c-0.653,0-1.186,0.533-1.186,1.186v9.559h-0.7v-9.559
						c0-0.653-0.533-1.186-1.186-1.186h-15.376c-0.653,0-1.185,0.533-1.185,1.186v9.559h-0.7v-9.559
						c0-0.653-0.533-1.186-1.186-1.186h-15.376c-0.653,0-1.186,0.533-1.186,1.186v9.559h-0.7v-9.559
						c0-0.653-0.533-1.186-1.186-1.186H272.12c-0.653,0-1.186,0.533-1.186,1.186v9.559h-0.7v-9.559c0-0.653-0.533-1.186-1.185-1.186
						h-11.136v-0.7h11.136c0.653,0,1.185-0.533,1.185-1.186v-20.024c0-0.653-0.533-1.185-1.185-1.185h-11.136v-0.7h11.136
						c0.653,0,1.185-0.533,1.185-1.186v-20.024c0-0.653-0.533-1.186-1.185-1.186h-11.136v-0.7h11.136
						c0.653,0,1.185-0.533,1.185-1.186V312.849L270.233,312.849z M270.934,357.387v20.024c0,0.653,0.533,1.186,1.186,1.186h15.376
						c0.653,0,1.186-0.533,1.186-1.186v-20.024c0-0.653-0.533-1.186-1.186-1.186H272.12
						C271.466,356.201,270.934,356.734,270.934,357.387L270.934,357.387z M270.934,380.482v20.024c0,0.653,0.533,1.186,1.186,1.186
						h15.376c0.653,0,1.186-0.533,1.186-1.186v-20.024c0-0.653-0.533-1.185-1.186-1.185H272.12
						C271.466,379.297,270.934,379.829,270.934,380.482L270.934,380.482z M361.284,356.201h-15.377
						c-0.653,0-1.185,0.533-1.185,1.186v20.024c0,0.653,0.533,1.186,1.185,1.186h15.377c0.653,0,1.186-0.533,1.186-1.186l0-20.024
						C362.47,356.734,361.937,356.201,361.284,356.201L361.284,356.201z M342.837,356.201h-15.376c-0.653,0-1.186,0.533-1.186,1.186
						v20.024c0,0.653,0.533,1.186,1.186,1.186h15.376c0.653,0,1.186-0.533,1.186-1.186v-20.024
						C344.022,356.734,343.489,356.201,342.837,356.201L342.837,356.201z M324.389,356.201h-15.376
						c-0.653,0-1.185,0.533-1.185,1.186v20.024c0,0.653,0.533,1.186,1.185,1.186h15.376c0.653,0,1.186-0.533,1.186-1.186v-20.024
						C325.575,356.734,325.042,356.201,324.389,356.201L324.389,356.201z M305.942,356.201h-15.376
						c-0.653,0-1.186,0.533-1.186,1.186v20.024c0,0.653,0.533,1.186,1.186,1.186h15.376c0.653,0,1.186-0.533,1.186-1.186v-20.024
						C307.128,356.734,306.595,356.201,305.942,356.201L305.942,356.201z M361.285,379.297h-15.377
						c-0.653,0-1.185,0.533-1.185,1.185v20.024c0,0.653,0.533,1.186,1.185,1.186h15.266c0.604,0,1.106-0.447,1.177-1.047
						c0.026-0.219,0.046-0.431,0.062-0.635c0.059-0.76,0.058-1.395,0.057-1.868l0-17.66
						C362.47,379.829,361.938,379.297,361.285,379.297L361.285,379.297z M342.837,379.297h-15.376c-0.653,0-1.186,0.533-1.186,1.185
						v20.024c0,0.653,0.533,1.186,1.186,1.186h15.376c0.653,0,1.186-0.533,1.186-1.186v-20.024
						C344.022,379.829,343.489,379.297,342.837,379.297L342.837,379.297z M324.389,379.297h-15.376
						c-0.653,0-1.185,0.533-1.185,1.185v20.024c0,0.653,0.533,1.186,1.185,1.186h15.376c0.653,0,1.186-0.533,1.186-1.186v-20.024
						C325.575,379.829,325.042,379.297,324.389,379.297L324.389,379.297z M305.942,379.297h-15.376
						c-0.653,0-1.186,0.533-1.186,1.185v20.024c0,0.653,0.533,1.186,1.186,1.186h15.376c0.653,0,1.186-0.533,1.186-1.186v-20.024
						C307.128,379.829,306.595,379.297,305.942,379.297z"/>
					<path style="fill-rule:evenodd;clip-rule:evenodd;fill:#1B222D;" d="M253.219,413.136c-7.094,0-12.844-5.75-12.844-12.844
						c0-7.094,5.751-12.844,12.844-12.844h109.428c-7.094,0-12.844,5.75-12.844,12.844c0,7.093,5.75,12.844,12.844,12.844H253.219z"
						/>
					<rect x="257.912" y="312.849" style="fill-rule:evenodd;clip-rule:evenodd;fill:#92D99C;" width="117.579" height="22.233"/>
					<path style="fill-rule:evenodd;clip-rule:evenodd;fill:#FFFFFF;" d="M264.933,316.288h12.779c0.581,0,1.111,0.238,1.497,0.623
						l0.003,0.003c0.384,0.385,0.623,0.916,0.623,1.497v11.112c0,0.581-0.239,1.112-0.623,1.497l-0.003,0.003
						c-0.385,0.384-0.916,0.623-1.497,0.623h-12.779c-0.581,0-1.112-0.239-1.497-0.623l-0.003-0.003
						c-0.384-0.385-0.623-0.916-0.623-1.497V318.41c0-0.581,0.239-1.111,0.623-1.497l0.003-0.003
						C263.821,316.526,264.352,316.288,264.933,316.288L264.933,316.288z M277.712,317.688h-12.779c-0.199,0-0.38,0.081-0.509,0.21
						l-0.003,0.003c-0.129,0.129-0.21,0.31-0.21,0.509v11.112c0,0.199,0.081,0.38,0.21,0.509l0.003,0.003
						c0.129,0.129,0.31,0.21,0.509,0.21h12.779c0.199,0,0.38-0.081,0.509-0.21l0.003-0.003c0.129-0.13,0.21-0.31,0.21-0.509V318.41
						c0-0.199-0.081-0.38-0.21-0.509l-0.003-0.003C278.092,317.769,277.911,317.688,277.712,317.688z"/>
					<path style="fill-rule:evenodd;clip-rule:evenodd;fill:#1B222D;" d="M289.817,319.23h53.768c1.031,0,1.874,0.843,1.874,1.874
						v0.001c0,1.031-0.843,1.874-1.874,1.874h-53.768c-1.031,0-1.874-0.843-1.874-1.874v-0.001
						C287.943,320.073,288.786,319.23,289.817,319.23z"/>
					<path style="fill-rule:evenodd;clip-rule:evenodd;fill:#1B222D;" d="M289.817,327.001h31.167c1.031,0,1.874,0.843,1.874,1.874
						v0.001c0,1.031-0.843,1.874-1.874,1.874h-31.167c-1.031,0-1.874-0.843-1.874-1.874v-0.001
						C287.943,327.844,288.786,327.001,289.817,327.001z"/>
					<path style="fill-rule:evenodd;clip-rule:evenodd;fill:#1B222D;" d="M369.707,333.043h2.524c0.732,0,1.329-0.597,1.329-1.329
						v-2.524c0-0.549-0.313-1.018-0.82-1.228c-0.508-0.21-1.06-0.1-1.449,0.288l-2.524,2.524c-0.388,0.388-0.498,0.941-0.288,1.449
						C368.689,332.73,369.158,333.043,369.707,333.043z"/>
					<path style="fill-rule:evenodd;clip-rule:evenodd;fill:#92D99C;" d="M362.481,387.45c0.155,0.033,2.077,0.509,2.373,4.065
						h-11.583C355.579,389.05,358.848,387.496,362.481,387.45z"/>
				</g>
				<g>
					<path style="fill-rule:evenodd;clip-rule:evenodd;fill:#FFFFFF;" d="M246.567,429.902c-0.533,0-0.966-0.433-0.966-0.966
						c0-0.533,0.432-0.966,0.966-0.966h121.826c0.534,0,0.966,0.432,0.966,0.966c0,0.533-0.432,0.966-0.966,0.966H246.567z"/>
					<path style="fill-rule:evenodd;clip-rule:evenodd;fill:#F1E858;" d="M334.345,436.409l3.278-3.279
						c0.951-0.951,2.502-0.951,3.453,0l3.278,3.279c0.713,0.713,0.915,1.729,0.529,2.66c-0.386,0.932-1.248,1.508-2.256,1.508
						h-6.557c-1.008,0-1.87-0.575-2.256-1.508C333.43,438.138,333.632,437.122,334.345,436.409z"/>
				</g>
			</g>
			<g>
				<path style="fill-rule:evenodd;clip-rule:evenodd;fill:#F1E858;" d="M493.069,321.897v85.786H384.587v-85.786
					c0-1.306,1.065-2.371,2.371-2.371h54.141l0.96-5.689c0.097-0.575,0.586-0.988,1.169-0.988h34.98
					c0.583,0,1.072,0.413,1.169,0.988l0.96,5.689h10.36C492.004,319.526,493.069,320.591,493.069,321.897z"/>
				<path style="fill-rule:evenodd;clip-rule:evenodd;fill:#1B222D;" d="M451.573,365.392v21.12h-25.492v-21.12
					c0-0.653-0.533-1.185-1.185-1.185h-6.076l19.169-19.17c0.462-0.462,1.215-0.462,1.677,0l19.169,19.17h-6.076
					C452.106,364.207,451.573,364.74,451.573,365.392z"/>
			</g>
		</g>
	</g>
	<g>
		<path style="fill-rule:evenodd;clip-rule:evenodd;fill:#FFFFFF;" d="M520.511,90.461c2.041,0,3.705-1.664,3.705-3.705
			c0-2.041-1.664-3.705-3.705-3.705c-2.041,0-3.705,1.664-3.705,3.705C516.806,88.796,518.47,90.461,520.511,90.461z"/>
		<path style="fill-rule:evenodd;clip-rule:evenodd;fill:#FFFFFF;" d="M538.852,54.15c0.918,0,1.667-0.749,1.667-1.667
			c0-0.918-0.749-1.667-1.667-1.667c-0.918,0-1.667,0.749-1.667,1.667C537.184,53.401,537.933,54.15,538.852,54.15z"/>
		<path style="fill-rule:evenodd;clip-rule:evenodd;fill:#FFFFFF;" d="M670.201,128.995c1.021,0,1.853-0.832,1.853-1.853
			c0-1.02-0.832-1.853-1.853-1.853c-1.02,0-1.853,0.832-1.853,1.853C668.349,128.163,669.181,128.995,670.201,128.995z"/>
		<path style="fill-rule:evenodd;clip-rule:evenodd;fill:#FFFFFF;" d="M664.088,255.714c0.714,0,1.297-0.583,1.297-1.297
			c0-0.714-0.583-1.297-1.297-1.297s-1.297,0.582-1.297,1.297C662.791,255.132,663.373,255.714,664.088,255.714z"/>
		<path style="fill-rule:evenodd;clip-rule:evenodd;fill:#FFFFFF;" d="M67.364,253.862c2.449,0,4.446-1.997,4.446-4.446
			c0-2.449-1.997-4.446-4.446-4.446c-2.449,0-4.446,1.997-4.446,4.446C62.918,251.865,64.915,253.862,67.364,253.862z"/>
		<path style="fill-rule:evenodd;clip-rule:evenodd;fill:#FFFFFF;" d="M90.336,245.711c1.224,0,2.223-0.999,2.223-2.223
			s-0.999-2.223-2.223-2.223c-1.225,0-2.223,0.999-2.223,2.223S89.112,245.711,90.336,245.711z"/>
		<circle style="fill-rule:evenodd;clip-rule:evenodd;fill:#FFFFFF;" cx="512.219" cy="422.595" r="3.705"/>
		<path style="fill-rule:evenodd;clip-rule:evenodd;fill:#FFFFFF;" d="M533.154,432.97c0.646,0,1.173-0.527,1.173-1.173
			c0-0.646-0.527-1.174-1.173-1.174c-0.646,0-1.174,0.527-1.174,1.174C531.981,432.443,532.508,432.97,533.154,432.97z"/>
		<path style="fill-rule:evenodd;clip-rule:evenodd;fill:#FFFFFF;" d="M640.667,416.174c0.544,0,0.988-0.444,0.988-0.988
			c0-0.544-0.444-0.988-0.988-0.988c-0.544,0-0.988,0.444-0.988,0.988C639.679,415.73,640.123,416.174,640.667,416.174z"/>
		<path style="fill-rule:evenodd;clip-rule:evenodd;fill:#FFFFFF;" d="M145.157,78.999c1.088,0,1.976-0.888,1.976-1.976
			s-0.888-1.976-1.976-1.976s-1.976,0.888-1.976,1.976S144.068,78.999,145.157,78.999z"/>
	</g>
	<g>
		<g>
			<g>
				<path style="fill-rule:evenodd;clip-rule:evenodd;fill:#1B222D;" d="M80.044,180.255h60.203h0l0.045,0.001h0.004l0.04,0.001
					l0.008,0.001l0.036,0.002l0.013,0.001l0.031,0.003l0.017,0.001l0.026,0.003l0.021,0.002l0.022,0.003l0.026,0.003l0.017,0.003
					l0.03,0.005l0.013,0.002l0.034,0.007l0.009,0.002l0.038,0.008l0.004,0.001l0.042,0.01l0.042,0.011l0.004,0.001l0.037,0.011
					l0.008,0.002l0.033,0.011l0.012,0.004l0.028,0.01l0.016,0.006l0.024,0.009l0.02,0.008l0.02,0.008l0.024,0.01l0.015,0.007
					l0.027,0.012l0.011,0.005l0.031,0.015l0.007,0.004l0.034,0.017l0.004,0.002l0.037,0.02l0,0l0.037,0.021l0.004,0.002l0.032,0.019
					l0.008,0.005l0.028,0.018l0.011,0.007l0.024,0.016l0.014,0.01l0.021,0.014l0.017,0.012l0.017,0.012l0.021,0.015l0.013,0.01
					l0.024,0.018l0.01,0.007l0.026,0.022l0.006,0.005l0.029,0.025l0.003,0.002l0.031,0.028l0,0l0.03,0.028l0.025,0.024l0.005,0.005
					l0.006,0.006l0.023,0.023l0.009,0.01l0.02,0.021l0.011,0.013l0.017,0.018l0.015,0.016l0.013,0.015l0.016,0.02l0.01,0.012
					l0.019,0.023l0.008,0.01l0.021,0.027l0.005,0.006l0.023,0.031l0.002,0.003l0.024,0.035l0,0.001l0.05,0.078l0.017,0.028
					l0.007,0.012c0.023,0.04,0.045,0.081,0.065,0.123l0.007,0.014l0.013,0.028l0.005,0.011l0.014,0.033l0.003,0.007l0.015,0.037
					l0.001,0.003l0.015,0.04l0.001,0.001l0.014,0.039l0.002,0.005l0.012,0.036l0.003,0.009l0.01,0.031l0.004,0.014l0.012,0.046
					l0.006,0.024l0.005,0.023l0.004,0.019l0.006,0.027l0.003,0.016l0.006,0.031l0.002,0.011l0.006,0.036l0.001,0.007
					c0.014,0.093,0.021,0.188,0.021,0.284v36.711l0,0.025l0,0.025l-0.001,0.014l-0.002,0.035l0,0.003l-0.002,0.038l-0.001,0.008
					l-0.003,0.03l-0.002,0.019l-0.002,0.019l-0.001,0.01l-0.004,0.028l-0.005,0.037l-0.012,0.071l0,0.002l-0.005,0.023l-0.003,0.014
					l-0.007,0.033l-0.001,0.004l-0.009,0.036l-0.001,0.007l-0.008,0.029l-0.005,0.016l-0.006,0.019l-0.008,0.026l-0.003,0.009
					l-0.011,0.035l0,0.001l-0.012,0.034l-0.004,0.011l-0.009,0.023l-0.008,0.02l-0.006,0.014l-0.012,0.03l-0.002,0.004l-0.015,0.034
					l-0.002,0.005l-0.013,0.028l-0.007,0.014l-0.009,0.019l-0.012,0.023l-0.005,0.009l-0.017,0.032h0l-0.018,0.031l-0.005,0.009
					l-0.023,0.04l-0.008,0.014l-0.017,0.026l-0.023,0.035l-0.003,0.004l-0.018,0.026l-0.009,0.012l-0.012,0.017l-0.015,0.02
					l-0.006,0.009l-0.022,0.028l0,0.001l-0.023,0.028l-0.006,0.007l-0.017,0.02l-0.012,0.015l-0.011,0.012l-0.02,0.022l-0.028,0.031
					l-0.003,0.003l-0.022,0.023l-0.01,0.01l-0.015,0.015l-0.018,0.017l-0.009,0.008l-0.025,0.023l-0.001,0.001l-0.027,0.023
					l-0.007,0.006l-0.001,0.001l-0.035,0.029l-0.013,0.011l-0.023,0.018l-0.005,0.004l-0.029,0.022l-0.002,0.002l-0.005,0.003
					l-0.033,0.024l-0.018,0.013l-0.02,0.014l-0.011,0.007l-0.028,0.018l-0.002,0.001l-0.031,0.019l-0.006,0.004l-0.025,0.015
					l-0.015,0.009l-0.016,0.009l-0.025,0.014l-0.007,0.004l-0.032,0.017l-0.002,0.001l-0.03,0.015l-0.011,0.006l-0.022,0.01
					l-0.021,0.01l-0.012,0.006l-0.03,0.013l-0.003,0.001l-0.034,0.014l-0.007,0.003l-0.027,0.011l-0.016,0.006l-0.018,0.007
					c-0.201,0.071-0.416,0.11-0.64,0.11H80.044c-0.269,0-0.526-0.056-0.759-0.157l-0.029-0.013l-0.004-0.002l-0.032-0.015
					l-0.007-0.003L79.19,220.6l-0.017-0.008l-0.014-0.008l-0.027-0.014l-0.004-0.003l-0.03-0.017l-0.006-0.003l-0.025-0.014
					l-0.015-0.009l-0.015-0.009l-0.024-0.015l-0.005-0.003l-0.029-0.019l-0.029-0.02l-0.013-0.009l-0.015-0.011l-0.022-0.017
					l-0.006-0.005l-0.027-0.021l-0.003-0.002l-0.024-0.02l-0.012-0.009l-0.015-0.013l-0.02-0.017l-0.007-0.006l-0.026-0.023
					l-0.002-0.002l-0.024-0.022l-0.025-0.024l-0.018-0.017l-0.007-0.007l-0.024-0.025l-0.001-0.001l-0.023-0.025l-0.009-0.009
					l-0.015-0.016l-0.016-0.018l-0.007-0.008l-0.022-0.027v0l-0.022-0.027l-0.007-0.009l-0.014-0.019l-0.014-0.018l-0.008-0.01
					l-0.02-0.027l-0.001-0.001c-0.026-0.038-0.051-0.076-0.076-0.115l-0.001-0.002l-0.018-0.03l-0.004-0.007l-0.022-0.041
					l-0.007-0.013l-0.014-0.027l-0.002-0.004l-0.016-0.031l-0.004-0.007l-0.012-0.025l-0.008-0.017l-0.007-0.015l-0.012-0.028
					l-0.002-0.005l-0.014-0.033l-0.002-0.006l-0.011-0.027l-0.006-0.017l-0.006-0.017l-0.01-0.027l-0.002-0.006l-0.011-0.034
					l-0.002-0.005l-0.009-0.029l-0.004-0.016l-0.012-0.046l-0.002-0.007l-0.009-0.035l-0.001-0.004l-0.007-0.031l-0.003-0.015
					l-0.004-0.02l-0.005-0.027l-0.002-0.009l-0.006-0.036l-0.001-0.003l-0.005-0.033l-0.002-0.014l-0.002-0.022l-0.003-0.026
					l-0.001-0.011l-0.004-0.037v-0.001l-0.002-0.036l-0.001-0.013l-0.001-0.024l-0.001-0.025l0-0.012l0-0.037v-1.238v-35.474
					c0-0.097,0.007-0.191,0.021-0.284l0.001-0.007l0.006-0.036l0.007-0.038l0.001-0.005l0.003-0.016l0.006-0.027l0.009-0.038
					l0.001-0.004l0.006-0.023l0.005-0.018l0.008-0.027l0.004-0.014l0.013-0.041l0.011-0.035l0.002-0.005l0.03-0.08l0.001-0.003
					l0.015-0.037l0.002-0.006l0.014-0.033l0.004-0.01l0.013-0.028l0.006-0.014l0.012-0.024l0.009-0.018l0.01-0.02l0.011-0.021
					l0.009-0.016l0.014-0.025l0.007-0.012l0.016-0.028l0.005-0.008l0.02-0.031l0.003-0.005l0.022-0.034l0.001-0.001l0.024-0.035
					l0.002-0.003l0.023-0.031l0.004-0.006L78.529,181l0.051-0.062l0.002-0.003l0.013-0.015l0.014-0.017l0.016-0.018l0.012-0.013
					l0.019-0.021l0.009-0.01l0.06-0.059l0.03-0.028l0.001-0.001l0.032-0.027l0.002-0.002l0.03-0.025l0.006-0.005l0.027-0.022
					l0.059-0.045l0.008-0.006l0.016-0.012l0.018-0.013l0.007-0.005l0.027-0.018l0.001,0l0.024-0.016l0.011-0.007l0.028-0.017
					l0.008-0.005l0.032-0.019l0.004-0.002l0.036-0.02l0.001,0l0.037-0.02l0.003-0.002l0.035-0.017l0.007-0.003l0.031-0.015
					l0.011-0.005l0.027-0.012l0.038-0.016l0.001,0l0.019-0.008l0.02-0.008l0.024-0.009l0.017-0.006l0.028-0.01l0.012-0.004
					l0.032-0.01l0.009-0.002l0.037-0.011l0.004-0.001l0.041-0.011l0,0l0.042-0.01l0.004-0.001l0.038-0.008l0.008-0.002l0.034-0.007
					c0.041-0.007,0.083-0.014,0.124-0.019l0.005-0.001l0.026-0.003l0.037-0.003l0.011-0.001l0.013-0.001l0.035-0.002l0.009-0.001
					l0.04-0.001H80L80.044,180.255z"/>
				<g>
					<path style="fill-rule:evenodd;clip-rule:evenodd;fill:#F1E858;" d="M73.564,176.117l59.96-5.404
						c1.051-0.094,1.988,0.687,2.082,1.738l3.295,36.564c0.095,1.051-0.687,1.988-1.738,2.082l-59.96,5.404
						c-1.051,0.094-1.987-0.687-2.082-1.738l-3.295-36.564C71.731,177.148,72.513,176.211,73.564,176.117z"/>
					<path style="fill-rule:evenodd;clip-rule:evenodd;fill:#1B222D;" d="M73.564,176.116l28.669,18.452
						c2.035,1.31,4.615,1.077,6.383-0.575l24.908-23.28h0c0.954-0.086,1.815,0.552,2.036,1.457l-10.758,10.055
						c-1.968,1.84-2.217,4.846-0.577,6.983l14.608,19.044l0.071,0.786c0.063,0.818-0.404,1.564-1.113,1.891l-14.749-19.228
						c-0.928-1.21-2.189-1.897-3.709-2.023c-1.52-0.126-2.876,0.346-3.99,1.387l-6.448,6.026c-1.768,1.652-4.348,1.885-6.383,0.575
						l-9.137-5.881c-1.344-0.865-2.848-1.069-4.374-0.594c-1.526,0.476-2.647,1.498-3.262,2.973l-9.272,22.257
						c-0.721-0.224-1.275-0.865-1.346-1.66l-0.111-1.233l9.348-22.439c0.98-2.352,0.151-5.011-1.992-6.39l-10.544-6.786
						C71.877,176.984,72.609,176.202,73.564,176.116z"/>
				</g>
			</g>
			<g>
				<path style="fill-rule:evenodd;clip-rule:evenodd;fill:#FFFFFF;" d="M91.476,165.344c0,0-13.67-10.692-8.59-16.481
					c5.081-5.789,9.436,4.115,11.012,9.661C95.474,164.069,94.476,167.26,91.476,165.344z"/>
				<path style="fill-rule:evenodd;clip-rule:evenodd;fill:#FFFFFF;" d="M97.922,159.376c0,0-1.664-10.997,4.469-10.201
					c6.133,0.795,0.532,8.865-1.033,11.062C99.792,162.433,97.943,160.591,97.922,159.376z"/>
			</g>
		</g>
		<g>
			<path style="fill-rule:evenodd;clip-rule:evenodd;fill:#1B222D;" d="M166.965,305.323h43.364h4.463
				c0.87,0,1.582,0.712,1.582,1.582v141.969c0,0.87-0.712,1.583-1.582,1.583H75.487c-0.871,0-1.582-0.712-1.582-1.583V312.395v-5.49
				v-1.582H166.965z"/>
			<g>
				<path style="fill-rule:evenodd;clip-rule:evenodd;fill:#FFFFFF;" d="M145.728,322.983h29.294c1.51,0,2.746,1.236,2.746,2.746v0
					c0,1.51-1.236,2.746-2.746,2.746h-29.294c-1.51,0-2.746-1.236-2.746-2.746v0C142.982,324.219,144.218,322.983,145.728,322.983z"
					/>
				<path style="fill-rule:evenodd;clip-rule:evenodd;fill:#FFFFFF;" d="M158.919,372.42h22.226c2.403,0,4.369,1.966,4.369,4.369v0
					c0,2.403-1.966,4.369-4.369,4.369h-22.226c-2.403,0-4.369-1.966-4.369-4.369v0C154.55,374.386,156.516,372.42,158.919,372.42z"
					/>
				<path style="fill-rule:evenodd;clip-rule:evenodd;fill:#6862C7;" d="M112.021,287.045h43.105c0.962,0,1.749,0.787,1.749,1.749
					v14.81c0,0.962-0.787,1.749-1.749,1.749h-43.105c-0.962,0-1.748-0.787-1.748-1.749v-14.81
					C110.272,287.832,111.059,287.045,112.021,287.045z"/>
				<path style="fill-rule:evenodd;clip-rule:evenodd;fill:#1B222D;" d="M110.417,296.668h94.285c0.871,0,1.582,0.712,1.582,1.582
					v141.969c0,0.871-0.712,1.582-1.582,1.582H65.396c-0.871,0-1.582-0.712-1.582-1.582V303.74v-5.49v-9.32
					c0-0.962,0.787-1.749,1.749-1.749h43.104c0.962,0,1.749,0.787,1.749,1.749V296.668z"/>
				<path style="fill-rule:evenodd;clip-rule:evenodd;fill:#92D99C;" d="M90.894,326.241h22.629c1.465,0,2.663,1.199,2.663,2.663v0
					c0,1.465-1.198,2.663-2.663,2.663H90.894c-1.465,0-2.663-1.198-2.663-2.663v0C88.231,327.439,89.429,326.241,90.894,326.241z"/>
				<path style="fill-rule:evenodd;clip-rule:evenodd;fill:#6862C7;" d="M121.345,326.241h13.898c1.465,0,2.663,1.199,2.663,2.663v0
					c0,1.465-1.198,2.663-2.663,2.663h-13.898c-1.465,0-2.663-1.198-2.663-2.663v0C118.682,327.439,119.88,326.241,121.345,326.241z
					"/>
				<path style="fill-rule:evenodd;clip-rule:evenodd;fill:#6862C7;" d="M143.065,326.241h21.055c1.465,0,2.663,1.199,2.663,2.663v0
					c0,1.465-1.198,2.663-2.663,2.663h-21.055c-1.465,0-2.663-1.198-2.663-2.663v0C140.402,327.439,141.6,326.241,143.065,326.241z"
					/>
				<path style="fill-rule:evenodd;clip-rule:evenodd;fill:#E07074;" d="M80.401,313.924h21.055c1.464,0,2.662,1.199,2.662,2.663v0
					c0,1.465-1.198,2.663-2.662,2.663H80.401c-1.464,0-2.663-1.198-2.663-2.663v0C77.739,315.123,78.937,313.924,80.401,313.924z"/>
				<path style="fill-rule:evenodd;clip-rule:evenodd;fill:#FFFFFF;" d="M175.02,325.712l-3.586,6.211l-0.479-0.277l3.586-6.211
					L175.02,325.712L175.02,325.712z M178.005,325.712l-0.479-0.277l-3.586,6.211l0.479,0.277L178.005,325.712z"/>
				<path style="fill-rule:evenodd;clip-rule:evenodd;fill:#FFFFFF;" d="M184.425,326.241h6.003c1.465,0,2.663,1.199,2.663,2.663v0
					c0,1.465-1.198,2.663-2.663,2.663h-6.003c-1.465,0-2.663-1.198-2.663-2.663v0C181.762,327.439,182.96,326.241,184.425,326.241z"
					/>
				<path style="fill-rule:evenodd;clip-rule:evenodd;fill:#6862C7;" d="M90.894,337.721L90.894,337.721
					c1.465,0,2.663,1.198,2.663,2.663v0c0,1.465-1.199,2.663-2.663,2.663h-0.001c-1.464,0-2.662-1.198-2.662-2.663v0
					C88.231,338.92,89.429,337.721,90.894,337.721z"/>
				<polygon style="fill-rule:evenodd;clip-rule:evenodd;fill:#92D99C;" points="100.459,337.721 103.121,343.047 97.796,343.047 
									"/>
				<path style="fill-rule:evenodd;clip-rule:evenodd;fill:#6862C7;" d="M110.534,337.721h11.918c1.465,0,2.663,1.198,2.663,2.663v0
					c0,1.465-1.198,2.663-2.663,2.663h-11.918c-1.465,0-2.663-1.198-2.663-2.663v0C107.871,338.92,109.069,337.721,110.534,337.721z
					"/>
				<path style="fill-rule:evenodd;clip-rule:evenodd;fill:#92D99C;" d="M90.894,350.54h37.303c1.464,0,2.662,1.199,2.662,2.663v0
					c0,1.465-1.198,2.663-2.662,2.663H90.894c-1.465,0-2.663-1.198-2.663-2.663v0C88.231,351.739,89.429,350.54,90.894,350.54z"/>
				<path style="fill-rule:evenodd;clip-rule:evenodd;fill:#92D99C;" d="M136.241,350.54h13.898c1.465,0,2.663,1.199,2.663,2.663v0
					c0,1.465-1.198,2.663-2.663,2.663h-13.898c-1.464,0-2.663-1.198-2.663-2.663v0C133.578,351.739,134.777,350.54,136.241,350.54z"
					/>
				<path style="fill-rule:evenodd;clip-rule:evenodd;fill:#92D99C;" d="M80.401,363.031h21.055c1.464,0,2.662,1.198,2.662,2.663v0
					c0,1.464-1.198,2.663-2.662,2.663H80.401c-1.464,0-2.663-1.199-2.663-2.663v0C77.739,364.229,78.937,363.031,80.401,363.031z"/>
				<g>
					<polygon style="fill-rule:evenodd;clip-rule:evenodd;fill:#FFFFFF;" points="92.271,381.631 89.895,381.631 89.895,388.131 
						92.271,388.131 92.271,389.704 88.323,389.704 88.323,380.059 92.271,380.059 					"/>
					<path style="fill-rule:evenodd;clip-rule:evenodd;fill:#6862C7;" d="M97.833,382.218h21.055c1.465,0,2.663,1.198,2.663,2.663v0
						c0,1.465-1.198,2.663-2.663,2.663H97.833c-1.465,0-2.663-1.198-2.663-2.663v0C95.17,383.417,96.368,382.218,97.833,382.218z"/>
					<path style="fill-rule:evenodd;clip-rule:evenodd;fill:#E07074;" d="M127.113,382.218h7.865c1.464,0,2.663,1.198,2.663,2.663v0
						c0,1.465-1.198,2.663-2.663,2.663h-7.865c-1.465,0-2.663-1.198-2.663-2.663v0C124.45,383.417,125.648,382.218,127.113,382.218z
						"/>
					<polygon style="fill-rule:evenodd;clip-rule:evenodd;fill:#FFFFFF;" points="140.54,380.059 144.488,380.059 144.488,389.704 
						140.54,389.704 140.54,388.131 142.916,388.131 142.916,381.631 140.54,381.631 					"/>
				</g>
				<path style="fill-rule:evenodd;clip-rule:evenodd;fill:#92D99C;" d="M110.132,400.067L110.132,400.067
					c1.465,0,2.663,1.198,2.663,2.663v0c0,1.464-1.199,2.663-2.663,2.663h-0.001c-1.464,0-2.662-1.199-2.662-2.663v0
					C107.47,401.265,108.668,400.067,110.132,400.067z"/>
				<polygon style="fill-rule:evenodd;clip-rule:evenodd;fill:#E07074;" points="100.459,400.067 103.121,405.393 97.796,405.393 
									"/>
				<polygon style="fill-rule:evenodd;clip-rule:evenodd;fill:#92D99C;" points="122.958,400.935 121.163,402.73 122.958,404.525 
					121.846,405.637 120.051,403.842 118.256,405.637 117.144,404.525 118.939,402.73 117.144,400.935 118.257,399.823 
					120.051,401.617 121.846,399.823 				"/>
				<path style="fill-rule:evenodd;clip-rule:evenodd;fill:#FFFFFF;" d="M141.08,399.763l-3.586,6.211l-0.479-0.277l3.587-6.212
					L141.08,399.763L141.08,399.763z M144.064,399.763l-0.479-0.278l-3.586,6.212l0.479,0.277L144.064,399.763z"/>
				<path style="fill-rule:evenodd;clip-rule:evenodd;fill:#FFFFFF;" d="M148.777,400.067h11.574c1.465,0,2.663,1.198,2.663,2.663v0
					c0,1.464-1.198,2.663-2.663,2.663h-11.574c-1.465,0-2.663-1.199-2.663-2.663v0C146.114,401.265,147.312,400.067,148.777,400.067
					z"/>
				<path style="fill-rule:evenodd;clip-rule:evenodd;fill:#FFFFFF;" d="M170.247,400.067h6.248c1.465,0,2.663,1.198,2.663,2.663v0
					c0,1.464-1.198,2.663-2.663,2.663h-6.248c-1.464,0-2.663-1.199-2.663-2.663v0C167.585,401.265,168.783,400.067,170.247,400.067z
					"/>
				<path style="fill-rule:evenodd;clip-rule:evenodd;fill:#E07074;" d="M80.401,414.463H93.03c1.465,0,2.663,1.198,2.663,2.663v0
					c0,1.465-1.198,2.663-2.663,2.663H80.401c-1.465,0-2.663-1.198-2.663-2.663v0C77.739,415.661,78.937,414.463,80.401,414.463z"/>
				<path style="fill-rule:evenodd;clip-rule:evenodd;fill:#92D99C;" d="M111.117,295.968h93.585c0.628,0,1.2,0.257,1.613,0.67
					c0.413,0.413,0.67,0.984,0.67,1.613v141.969c0,0.629-0.257,1.2-0.67,1.613c-0.413,0.413-0.985,0.67-1.613,0.67H65.396
					c-0.629,0-1.2-0.257-1.613-0.67c-0.413-0.413-0.67-0.984-0.67-1.613V288.93c0-0.674,0.275-1.287,0.719-1.731
					c0.446-0.443,1.058-0.719,1.731-0.719h43.104c0.672,0,1.285,0.276,1.728,0.719l0.003,0.003c0.443,0.443,0.719,1.056,0.719,1.728
					V295.968L111.117,295.968z M204.702,297.368h-94.986v-8.438c0-0.288-0.118-0.551-0.307-0.741
					c-0.19-0.19-0.453-0.307-0.742-0.307H65.563c-0.289,0-0.552,0.118-0.742,0.307c-0.189,0.191-0.307,0.454-0.307,0.741v151.289
					c0,0.242,0.099,0.462,0.26,0.622c0.16,0.16,0.381,0.26,0.622,0.26h139.306c0.242,0,0.462-0.099,0.623-0.26
					c0.16-0.16,0.26-0.381,0.26-0.622V298.25c0-0.242-0.1-0.462-0.26-0.622C205.165,297.468,204.944,297.368,204.702,297.368z"/>
			</g>
			<g>
				<g>
					
						<ellipse transform="matrix(0.9871 -0.1602 0.1602 0.9871 -68.4316 33.9581)" style="fill-rule:evenodd;clip-rule:evenodd;fill:#92D99C;" cx="176.412" cy="441.431" rx="17.692" ry="17.693"/>
					<path style="fill-rule:evenodd;clip-rule:evenodd;fill:#1B222D;" d="M176.412,457.679c8.949,0,16.248-7.299,16.248-16.248
						c0-8.949-7.299-16.248-16.248-16.248c-8.949,0-16.248,7.299-16.248,16.248C160.163,450.38,167.463,457.679,176.412,457.679z"/>
					<g>
						<path style="fill-rule:evenodd;clip-rule:evenodd;fill:#6862C7;" d="M169.8,449.879l-3.255,1.879l0.682,1.178l3.593-2.074
							c0.293-0.169,0.645-0.133,0.897,0.092c1.251,1.113,2.897,1.793,4.694,1.793l0,0c1.797,0,3.443-0.679,4.694-1.793
							c0.252-0.225,0.604-0.261,0.897-0.092l3.593,2.074l0.682-1.178l-3.255-1.879c-0.355-0.205-0.487-0.652-0.301-1.017
							c0.377-0.741,0.628-1.556,0.723-2.417c0.044-0.392,0.371-0.686,0.766-0.686h4.096v-1.365h-4.048
							c-0.424,0-0.77-0.346-0.77-0.77v-1.615c0-0.455-0.044-0.901-0.127-1.333c-0.063-0.328,0.082-0.645,0.371-0.813l2.484-1.434
							l-0.677-1.178l-2.122,1.225c-0.357,0.206-0.813,0.095-1.034-0.253c-1.259-1.975-3.469-3.292-5.972-3.292l0,0
							c-2.503,0-4.713,1.317-5.972,3.292c-0.222,0.348-0.678,0.459-1.035,0.253l-2.122-1.225l-0.677,1.178l2.484,1.434
							c0.289,0.167,0.434,0.484,0.371,0.813c-0.083,0.432-0.127,0.878-0.127,1.333v1.615c0,0.424-0.346,0.77-0.77,0.77h-4.048v1.365
							h4.096c0.395,0,0.722,0.294,0.765,0.686c0.095,0.86,0.346,1.676,0.723,2.417C170.287,449.228,170.155,449.674,169.8,449.879z"
							/>
						<path style="fill-rule:evenodd;clip-rule:evenodd;fill:#1B222D;" d="M175.957,452.732c0.151,0.01,0.302,0.015,0.455,0.015l0,0
							c0.153,0,0.304-0.005,0.455-0.015v-12.229h-0.91V452.732z"/>
						<g>
							<path style="fill-rule:evenodd;clip-rule:evenodd;fill:#6862C7;" d="M176.412,439.169c2.546,0,4.622-2.076,4.622-4.622
								c0-2.545-2.076-4.622-4.622-4.622c-2.546,0-4.622,2.076-4.622,4.622C171.79,437.093,173.866,439.169,176.412,439.169z"/>
							<path style="fill-rule:evenodd;clip-rule:evenodd;fill:#92D99C;" d="M180.663,436.363c-0.705,1.65-2.343,2.807-4.251,2.807
								c-1.908,0-3.546-1.157-4.252-2.807c1.186-0.896,2.66-1.429,4.252-1.429l0,0C178.004,434.933,179.477,435.466,180.663,436.363
								z"/>
						</g>
					</g>
				</g>
				<path style="fill-rule:evenodd;clip-rule:evenodd;fill:#E07074;" d="M190.462,425.914c1.489,0,2.703-1.215,2.703-2.704
					c0-1.489-1.214-2.703-2.703-2.703c-1.489,0-2.704,1.214-2.704,2.703C187.759,424.7,188.973,425.914,190.462,425.914z"/>
			</g>
		</g>
		<g>
			<path style="fill-rule:evenodd;clip-rule:evenodd;fill:#1B222D;" d="M632.187,158.652v54.385l-0.305-0.222l-0.068-0.05
				c-0.198-0.146-0.394-0.294-0.588-0.445l-0.055-0.043c-0.197-0.153-0.392-0.308-0.585-0.465l-0.044-0.036
				c-0.403-0.329-0.798-0.667-1.185-1.014l-0.021-0.019c-0.192-0.172-0.382-0.347-0.57-0.524l-0.03-0.028
				c-0.378-0.356-0.747-0.721-1.108-1.094l-0.029-0.03c-0.179-0.185-0.355-0.372-0.53-0.562l-0.018-0.021
				c-0.177-0.192-0.351-0.386-0.524-0.582l-0.003-0.003c-0.167-0.19-0.332-0.383-0.494-0.577l-0.047-0.056
				c-0.157-0.188-0.312-0.379-0.466-0.571l-0.047-0.059c-0.157-0.197-0.312-0.397-0.464-0.598l-0.009-0.011
				c-0.153-0.202-0.303-0.406-0.452-0.611l-0.034-0.047c-0.14-0.195-0.278-0.391-0.414-0.589l-0.068-0.1
				c-0.131-0.192-0.261-0.386-0.388-0.58h0c-3.816-5.848-5.841-12.937-5.35-20.441C618.972,173.262,624.334,164.286,632.187,158.652
				L632.187,158.652z M626.526,207.9l-0.494-0.577C626.194,207.518,626.359,207.71,626.526,207.9z"/>
			<path style="fill-rule:evenodd;clip-rule:evenodd;fill:#F1E858;" d="M650.051,142.199c18.434,1.205,32.402,17.126,31.196,35.561
				c-1.205,18.434-17.126,32.402-35.56,31.196c-18.434-1.205-32.401-17.126-31.196-35.56
				C615.695,154.962,631.617,140.994,650.051,142.199z"/>
			<path style="fill-rule:evenodd;clip-rule:evenodd;fill:#DA97C1;" d="M654.364,145.978c1.499,0.098,2.818,0.796,3.738,1.844
				c0.922,1.051,1.441,2.449,1.343,3.948c-0.098,1.499-0.796,2.819-1.845,3.739c-1.046,0.92-2.445,1.441-3.948,1.342
				c-1.501-0.098-2.821-0.797-3.74-1.844c-0.919-1.047-1.44-2.447-1.341-3.948c0.098-1.502,0.797-2.822,1.844-3.74
				C651.465,146.4,652.865,145.88,654.364,145.978L654.364,145.978z M630.769,168.725c2.198,0.143,4.131,1.167,5.479,2.702
				c1.351,1.541,2.113,3.59,1.969,5.788c-0.143,2.197-1.166,4.132-2.702,5.479c-1.54,1.351-3.591,2.113-5.788,1.969
				c-2.197-0.143-4.131-1.167-5.479-2.702c-1.351-1.54-2.112-3.591-1.968-5.788c0.143-2.198,1.165-4.132,2.701-5.479
				C626.522,169.344,628.573,168.582,630.769,168.725L630.769,168.725z M635.235,172.319c-1.118-1.274-2.725-2.123-4.554-2.242
				c-1.829-0.12-3.533,0.513-4.806,1.63c-1.277,1.118-2.125,2.726-2.245,4.555c-0.119,1.829,0.513,3.533,1.629,4.806
				c1.12,1.276,2.727,2.126,4.556,2.244c1.829,0.12,3.533-0.513,4.806-1.63c1.277-1.119,2.125-2.727,2.245-4.556
				C636.986,175.298,636.354,173.594,635.235,172.319L635.235,172.319z M641.634,144.63c0.956,0.062,1.798,0.506,2.383,1.174
				c0.586,0.668,0.917,1.559,0.854,2.516c-0.063,0.956-0.507,1.797-1.175,2.383c-0.67,0.585-1.56,0.917-2.516,0.854
				c-0.955-0.062-1.795-0.508-2.381-1.174c-0.587-0.669-0.919-1.561-0.857-2.516c0.063-0.956,0.508-1.795,1.175-2.381
				C639.786,144.897,640.679,144.566,641.634,144.63L641.634,144.63z M643.255,146.472c-0.415-0.473-1.01-0.788-1.687-0.832
				c-0.677-0.044-1.308,0.19-1.781,0.605c-0.473,0.413-0.787,1.009-0.832,1.687c-0.044,0.677,0.19,1.31,0.604,1.782
				c0.415,0.471,1.011,0.786,1.688,0.831c0.678,0.044,1.31-0.19,1.782-0.604c0.472-0.416,0.787-1.012,0.831-1.688
				C643.905,147.577,643.67,146.945,643.255,146.472L643.255,146.472z M654.298,146.99c-1.223-0.08-2.362,0.343-3.213,1.09
				c-0.853,0.75-1.421,1.825-1.501,3.046c-0.08,1.222,0.344,2.36,1.092,3.214c0.748,0.853,1.822,1.421,3.044,1.501
				c1.221,0.08,2.361-0.344,3.214-1.092c0.854-0.746,1.421-1.821,1.501-3.044C658.593,149.258,656.744,147.15,654.298,146.99z"/>
			<path style="fill-rule:evenodd;clip-rule:evenodd;fill:#DA97C1;" d="M672.758,153.234c4.227,4.709,7.124,10.606,8.15,17.077
				l0.145,1.009c0.266,2.098,0.338,4.251,0.195,6.44c-0.128,1.957-0.423,3.863-0.868,5.707l-0.253,0.987
				c-3.762,13.732-15.983,23.737-30.394,24.523c0.036-0.229,0.061-0.462,0.076-0.697c0.142-2.172-0.61-4.196-1.939-5.712
				c-1.33-1.516-3.239-2.525-5.411-2.667c-2.17-0.142-4.194,0.611-5.712,1.94c-1.249,1.096-2.154,2.585-2.513,4.291
				c-5.926-2.645-10.907-6.952-14.393-12.294c14.232,1.589,19.721-1.013,24.933-11.668c5.525-11.296,15.648,2.488,20.056-15.449
				C666.913,158.242,670.04,154.658,672.758,153.234L672.758,153.234z M648.697,209.017c0.048-0.262,0.082-0.531,0.1-0.803
				c0.123-1.893-0.531-3.656-1.69-4.977c-1.159-1.321-2.822-2.2-4.714-2.324c-1.892-0.124-3.656,0.531-4.978,1.689
				c-1.135,0.998-1.945,2.369-2.228,3.938c3.261,1.335,6.789,2.174,10.5,2.417C646.699,209.022,647.702,209.041,648.697,209.017z"/>
			<path style="fill-rule:evenodd;clip-rule:evenodd;fill:#FFFFFF;" d="M658.84,180.071c1.759,0.115,3.093,1.635,2.978,3.394
				c-0.115,1.759-1.635,3.093-3.395,2.978c-1.759-0.115-3.093-1.635-2.978-3.395C655.56,181.289,657.081,179.956,658.84,180.071z"/>
		</g>
		<g>
			<path style="fill-rule:evenodd;clip-rule:evenodd;fill:#E07074;" d="M402.092,438.584h14.603c3.866,0,7.436-0.944,10.503-2.713
				l-0.003-0.005c3.081-1.779,5.69-4.399,7.618-7.739l17.525-30.353c2.425-4.2,5.731-7.51,9.653-9.774h0.011
				c3.934-2.271,8.453-3.483,13.29-3.483h37.167c3.866,0,7.436-0.944,10.503-2.713l-0.003-0.005
				c3.081-1.779,5.689-4.399,7.618-7.739l24.978-43.264c2.425-4.2,5.731-7.509,9.653-9.774h0.011
				c3.934-2.271,8.453-3.483,13.29-3.483h80.061c3.866,0,7.436-0.945,10.503-2.713l-0.003-0.005c3.08-1.778,5.689-4.398,7.618-7.738
				l0.005,0.003l2.473-4.285c-0.916-1.207-1.46-2.711-1.46-4.343c0-3.97,3.218-7.188,7.188-7.188c3.97,0,7.188,3.218,7.188,7.188
				c0,3.97-3.218,7.188-7.188,7.188c-0.304,0-0.604-0.019-0.898-0.055l-2.473,4.283v0.011c-2.425,4.2-5.731,7.509-9.653,9.774
				h-0.011c-3.934,2.271-8.453,3.483-13.29,3.483H578.51c-3.866,0-7.436,0.944-10.503,2.713l0.003,0.005
				c-3.08,1.779-5.689,4.399-7.618,7.739l-24.979,43.264c-2.425,4.2-5.731,7.51-9.653,9.774h-0.011
				c-3.934,2.271-8.453,3.483-13.291,3.483h-37.167c-3.866,0-7.436,0.944-10.503,2.713l0.003,0.005
				c-3.081,1.778-5.69,4.398-7.618,7.739l-17.524,30.353c-2.425,4.2-5.731,7.509-9.653,9.774h-0.011
				c-3.934,2.271-8.453,3.483-13.29,3.483h-14.731c-1.126,2.497-3.638,4.235-6.556,4.235c-3.97,0-7.188-3.218-7.188-7.188
				c0-3.97,3.218-7.188,7.188-7.188C398.443,434.045,401.037,435.926,402.092,438.584z"/>
			<polygon style="fill-rule:evenodd;clip-rule:evenodd;fill:#FFFFFF;" points="664.033,385.79 664.033,347.758 659.22,352.572 
				657.055,350.406 665.565,341.896 674.075,350.406 671.91,352.572 667.096,347.758 667.096,385.79 			"/>
		</g>
		<g>
			<path style="fill-rule:evenodd;clip-rule:evenodd;fill:#FFFFFF;" d="M255.859,66.867h185.998c7.235,0,13.155,5.92,13.155,13.155
				v0c0,7.235-5.92,13.155-13.155,13.155H255.859c-7.235,0-13.155-5.92-13.155-13.155v0
				C242.704,72.786,248.624,66.867,255.859,66.867z"/>
			<g>
				<path style="fill-rule:evenodd;clip-rule:evenodd;fill:#92D99C;" d="M256.413,69.647h141.539
					c5.706,0,10.375,4.668,10.375,10.374v0c0,5.706-4.668,10.374-10.375,10.374H256.413c-5.706,0-10.375-4.668-10.375-10.374v0
					C246.039,74.315,250.707,69.647,256.413,69.647z"/>
				<path style="fill-rule:evenodd;clip-rule:evenodd;fill:#6BB68E;" d="M252.3,89.541l6.163-19.894h-2.049
					c-5.706,0-10.375,4.668-10.375,10.375C246.039,84.269,248.624,87.941,252.3,89.541z"/>
				<polygon style="fill-rule:evenodd;clip-rule:evenodd;fill:#6BB68E;" points="278.748,69.647 272.321,90.396 292.607,90.396 
					299.034,69.647 				"/>
				<polygon style="fill-rule:evenodd;clip-rule:evenodd;fill:#6BB68E;" points="319.32,69.647 312.893,90.396 333.179,90.396 
					339.607,69.647 				"/>
				<polygon style="fill-rule:evenodd;clip-rule:evenodd;fill:#6BB68E;" points="359.893,69.647 353.465,90.396 373.751,90.396 
					380.178,69.647 				"/>
				<path style="fill-rule:evenodd;clip-rule:evenodd;fill:#6BB68E;" d="M400.375,69.935l-6.339,20.462h3.916
					c5.706,0,10.375-4.668,10.375-10.374C408.327,75.149,404.923,71.033,400.375,69.935z"/>
			</g>
			<path style="fill-rule:evenodd;clip-rule:evenodd;fill:#E07074;" d="M395.637,55.153l3.278,3.278
				c0.951,0.951,2.503,0.951,3.453,0l3.278-3.278c0.713-0.713,0.915-1.729,0.529-2.661c-0.386-0.932-1.247-1.507-2.256-1.507h-6.557
				c-1.008,0-1.87,0.575-2.255,1.507C394.722,53.424,394.924,54.44,395.637,55.153z"/>
		</g>
	</g>
</g>
</svg>
