<?xml version="1.0" encoding="utf-8"?>
<!-- Generator: Adobe Illustrator 27.5.0, SVG Export Plug-In . SVG Version: 6.00 Build 0)  -->
<svg version="1.1" id="Ñëîé_1" xmlns="http://www.w3.org/2000/svg" xmlns:xlink="http://www.w3.org/1999/xlink" x="0px" y="0px"
	 viewBox="0 0 600 450" style="enable-background:new 0 0 600 450;" xml:space="preserve">
<radialGradient id="SVGID_1_" cx="323.958" cy="569.034" r="758.1578" gradientUnits="userSpaceOnUse">
	<stop  offset="0" style="stop-color:#6F127E"/>
	<stop  offset="0.0826" style="stop-color:#651078"/>
	<stop  offset="0.5008" style="stop-color:#34095C"/>
	<stop  offset="0.8199" style="stop-color:#16044B"/>
	<stop  offset="1" style="stop-color:#0B0244"/>
</radialGradient>
<rect x="0" style="fill:url(#SVGID_1_);" width="600" height="450"/>
<g>
	<path style="fill:#FFFFFF;" d="M272.454,397.168c-0.328,0-0.618-0.041-0.869-0.124c-0.252-0.083-0.46-0.197-0.624-0.345
		c-0.164-0.148-0.297-0.33-0.399-0.548c-0.104-0.218-0.175-0.451-0.217-0.701c-0.041-0.25-0.061-0.531-0.061-0.844v-2.659
		c0-0.331,0.021-0.624,0.064-0.881c0.042-0.256,0.114-0.493,0.216-0.713c0.102-0.219,0.233-0.399,0.397-0.54
		c0.164-0.141,0.371-0.251,0.621-0.331c0.25-0.08,0.541-0.12,0.872-0.12c0.38,0,0.705,0.051,0.975,0.152
		c0.27,0.101,0.483,0.25,0.64,0.446c0.156,0.196,0.27,0.425,0.34,0.688c0.071,0.262,0.106,0.568,0.106,0.917v0.653h-1.339v-0.648
		c0-0.38-0.02-0.636-0.06-0.768c-0.08-0.258-0.274-0.395-0.584-0.414c-0.024,0-0.049,0-0.074,0c-0.116,0-0.218,0.014-0.306,0.041
		c-0.087,0.027-0.158,0.071-0.214,0.131c-0.055,0.061-0.1,0.124-0.133,0.191c-0.034,0.067-0.06,0.155-0.076,0.265
		c-0.017,0.108-0.027,0.209-0.032,0.301c-0.005,0.092-0.007,0.209-0.007,0.35v3.228c0,0.448,0.056,0.767,0.168,0.957
		c0.111,0.19,0.311,0.285,0.6,0.285c0.099,0,0.186-0.012,0.261-0.034c0.074-0.023,0.138-0.053,0.189-0.088
		c0.05-0.035,0.093-0.086,0.129-0.151c0.035-0.066,0.062-0.127,0.08-0.184c0.019-0.058,0.032-0.136,0.041-0.237
		c0.01-0.102,0.015-0.188,0.017-0.258c0.001-0.07,0.002-0.167,0.002-0.29v-0.681h1.339v0.626c0,0.285-0.02,0.541-0.059,0.768
		c-0.04,0.227-0.108,0.439-0.205,0.639c-0.097,0.199-0.222,0.365-0.375,0.497c-0.153,0.132-0.35,0.235-0.589,0.31
		C273.046,397.131,272.769,397.168,272.454,397.168z"/>
	<path style="fill:#FFFFFF;" d="M275.475,397.077v-7.626h1.39v6.665h1.826v0.961H275.475z"/>
	<path style="fill:#FFFFFF;" d="M281.418,397.168c-0.784,0-1.348-0.213-1.688-0.639c-0.341-0.427-0.511-1.051-0.511-1.872v-2.815
		c0-0.404,0.038-0.756,0.115-1.054c0.076-0.297,0.2-0.555,0.37-0.772c0.17-0.218,0.397-0.381,0.683-0.489
		c0.285-0.109,0.629-0.164,1.03-0.164c0.782,0,1.345,0.211,1.686,0.631c0.342,0.42,0.513,1.036,0.513,1.849v2.815
		c0,0.398-0.039,0.749-0.117,1.051c-0.078,0.302-0.203,0.564-0.373,0.786c-0.17,0.223-0.397,0.391-0.683,0.504
		C282.159,397.112,281.817,397.168,281.418,397.168z M281.071,396.079c0.097,0.04,0.212,0.06,0.347,0.06
		c0.136,0,0.25-0.02,0.346-0.06c0.095-0.04,0.171-0.092,0.227-0.156c0.057-0.064,0.101-0.148,0.133-0.253s0.054-0.209,0.064-0.314
		c0.011-0.103,0.017-0.228,0.017-0.372v-3.464c0-0.184-0.01-0.337-0.027-0.46c-0.019-0.122-0.055-0.238-0.108-0.347
		c-0.054-0.109-0.134-0.191-0.241-0.244c-0.107-0.054-0.244-0.08-0.41-0.08c-0.165,0-0.303,0.026-0.411,0.08
		c-0.109,0.054-0.189,0.135-0.241,0.244c-0.053,0.108-0.088,0.225-0.106,0.347c-0.019,0.123-0.027,0.276-0.027,0.46v3.464
		c0,0.145,0.006,0.269,0.017,0.372c0.011,0.104,0.032,0.209,0.064,0.314c0.032,0.104,0.076,0.189,0.132,0.253
		C280.898,395.987,280.974,396.039,281.071,396.079z"/>
	<path style="fill:#FFFFFF;" d="M286.721,397.168c-0.34,0-0.636-0.04-0.886-0.119c-0.25-0.08-0.455-0.191-0.616-0.336
		c-0.161-0.145-0.289-0.329-0.386-0.555c-0.097-0.225-0.164-0.469-0.203-0.732c-0.038-0.262-0.057-0.566-0.057-0.912v-5.064h1.348
		v5.207c0,0.178,0.004,0.329,0.014,0.455c0.009,0.126,0.029,0.258,0.06,0.396c0.03,0.138,0.074,0.248,0.131,0.331
		c0.057,0.083,0.135,0.151,0.234,0.207c0.1,0.055,0.221,0.083,0.361,0.083c0.141,0,0.262-0.028,0.361-0.083
		c0.1-0.056,0.176-0.124,0.23-0.207c0.054-0.083,0.097-0.193,0.129-0.331c0.032-0.138,0.053-0.27,0.06-0.394
		c0.008-0.124,0.012-0.276,0.012-0.457v-5.207h1.348v5.064c0,0.346-0.019,0.65-0.058,0.912c-0.038,0.263-0.105,0.507-0.202,0.732
		c-0.097,0.226-0.225,0.41-0.384,0.555c-0.159,0.145-0.364,0.256-0.614,0.336C287.352,397.128,287.058,397.168,286.721,397.168z"/>
	<path style="fill:#FFFFFF;" d="M289.941,397.077v-7.626h1.775c0.46,0,0.845,0.046,1.154,0.138c0.31,0.092,0.558,0.238,0.745,0.438
		c0.188,0.199,0.319,0.443,0.398,0.733c0.079,0.29,0.118,0.646,0.118,1.069v2.75c0,0.435-0.04,0.806-0.12,1.109
		c-0.08,0.303-0.211,0.561-0.393,0.772c-0.182,0.212-0.425,0.367-0.729,0.467c-0.304,0.1-0.676,0.149-1.118,0.149H289.941z
		 M291.33,396.101h0.395c0.139,0,0.26-0.012,0.363-0.036c0.104-0.024,0.192-0.054,0.263-0.088c0.07-0.033,0.129-0.089,0.177-0.165
		c0.048-0.077,0.084-0.148,0.108-0.212c0.024-0.064,0.043-0.161,0.055-0.292c0.013-0.13,0.021-0.241,0.023-0.333
		c0.003-0.093,0.005-0.228,0.005-0.41v-2.787c0-0.181-0.004-0.326-0.01-0.436c-0.006-0.11-0.021-0.222-0.044-0.334
		c-0.022-0.111-0.057-0.198-0.101-0.26c-0.045-0.061-0.104-0.117-0.178-0.168c-0.073-0.051-0.165-0.086-0.275-0.105
		c-0.11-0.02-0.244-0.03-0.4-0.03h-0.382V396.101z"/>
	<path style="fill:#FFFFFF;" d="M299.375,397.168c-1.343,0-2.049-0.775-2.116-2.327l1.21-0.253c0.031,1.009,0.319,1.513,0.865,1.513
		c0.211,0,0.368-0.063,0.471-0.192c0.104-0.129,0.154-0.303,0.154-0.52c0-0.211-0.038-0.405-0.115-0.581
		c-0.076-0.177-0.165-0.32-0.267-0.433c-0.101-0.112-0.245-0.251-0.432-0.416l-1.003-0.87c-0.295-0.257-0.514-0.525-0.658-0.802
		c-0.144-0.278-0.216-0.625-0.216-1.042c0-0.592,0.174-1.052,0.521-1.38c0.349-0.328,0.826-0.495,1.434-0.502
		c0.278-0.003,0.525,0.032,0.74,0.104c0.215,0.072,0.392,0.169,0.531,0.29c0.14,0.121,0.256,0.273,0.35,0.453
		c0.094,0.181,0.163,0.369,0.209,0.563c0.046,0.194,0.078,0.412,0.097,0.65l-1.186,0.235c-0.006-0.153-0.017-0.287-0.03-0.4
		s-0.037-0.229-0.071-0.345c-0.033-0.117-0.077-0.211-0.131-0.283c-0.054-0.072-0.126-0.13-0.216-0.173
		c-0.091-0.043-0.195-0.06-0.315-0.05c-0.205,0.012-0.362,0.08-0.472,0.204c-0.108,0.124-0.163,0.291-0.163,0.499
		c0,0.245,0.049,0.447,0.145,0.605c0.097,0.157,0.248,0.327,0.453,0.508l0.994,0.864c0.165,0.15,0.31,0.297,0.432,0.438
		c0.123,0.141,0.24,0.302,0.352,0.482c0.111,0.182,0.197,0.381,0.255,0.599c0.059,0.218,0.088,0.447,0.088,0.689
		c0,0.556-0.176,1.006-0.527,1.353C300.406,396.996,299.945,397.168,299.375,397.168z"/>
	<path style="fill:#FFFFFF;" d="M302.842,397.077v-6.601h-1.278v-1.025h3.905v1.025h-1.237v6.601H302.842z"/>
	<path style="fill:#FFFFFF;" d="M308.15,397.168c-0.784,0-1.348-0.213-1.688-0.639c-0.341-0.427-0.511-1.051-0.511-1.872v-2.815
		c0-0.404,0.038-0.756,0.115-1.054c0.076-0.297,0.2-0.555,0.37-0.772c0.17-0.218,0.397-0.381,0.683-0.489
		c0.285-0.109,0.629-0.164,1.03-0.164c0.782,0,1.345,0.211,1.686,0.631c0.342,0.42,0.513,1.036,0.513,1.849v2.815
		c0,0.398-0.039,0.749-0.117,1.051c-0.078,0.302-0.203,0.564-0.373,0.786c-0.17,0.223-0.397,0.391-0.683,0.504
		C308.891,397.112,308.549,397.168,308.15,397.168z M307.803,396.079c0.097,0.04,0.212,0.06,0.347,0.06
		c0.136,0,0.25-0.02,0.346-0.06c0.095-0.04,0.171-0.092,0.227-0.156c0.057-0.064,0.101-0.148,0.133-0.253
		c0.032-0.104,0.054-0.209,0.065-0.314c0.011-0.103,0.017-0.228,0.017-0.372v-3.464c0-0.184-0.01-0.337-0.027-0.46
		c-0.019-0.122-0.055-0.238-0.108-0.347c-0.054-0.109-0.134-0.191-0.241-0.244c-0.107-0.054-0.244-0.08-0.41-0.08
		c-0.165,0-0.303,0.026-0.411,0.08c-0.109,0.054-0.19,0.135-0.241,0.244c-0.053,0.108-0.088,0.225-0.106,0.347
		c-0.019,0.123-0.027,0.276-0.027,0.46v3.464c0,0.145,0.006,0.269,0.017,0.372c0.011,0.104,0.032,0.209,0.063,0.314
		c0.032,0.104,0.076,0.189,0.132,0.253C307.63,395.987,307.707,396.039,307.803,396.079z"/>
	<path style="fill:#FFFFFF;" d="M311.366,397.077v-7.626h1.748c0.401,0,0.746,0.033,1.034,0.099
		c0.288,0.066,0.539,0.177,0.752,0.331c0.214,0.155,0.373,0.365,0.478,0.631c0.107,0.265,0.159,0.589,0.159,0.973
		c0,0.479-0.071,0.869-0.214,1.173c-0.143,0.304-0.378,0.524-0.706,0.662l1.058,3.758h-1.394l-0.911-3.481h-0.616v3.481H311.366z
		 M312.754,392.707h0.336c0.411,0,0.703-0.088,0.876-0.263c0.174-0.175,0.26-0.474,0.26-0.896c0-0.408-0.075-0.7-0.225-0.877
		c-0.15-0.176-0.427-0.264-0.828-0.264h-0.419V392.707z"/>
	<path style="fill:#FFFFFF;" d="M316.195,397.077l1.55-7.626h1.449l1.546,7.626h-1.293l-0.308-1.771h-1.32l-0.313,1.771H316.195z
		 M317.966,394.4h1.02l-0.511-3.133L317.966,394.4z"/>
	<path style="fill:#FFFFFF;" d="M323.375,397.178c-0.721,0-1.239-0.226-1.557-0.677c-0.317-0.45-0.476-1.106-0.476-1.969v-2.483
		c0-0.438,0.034-0.816,0.104-1.134c0.068-0.317,0.185-0.596,0.347-0.835c0.163-0.239,0.387-0.418,0.672-0.538
		c0.285-0.119,0.635-0.18,1.049-0.18c0.754,0,1.295,0.186,1.623,0.555c0.328,0.369,0.492,0.93,0.492,1.681v0.373h-1.329v-0.395
		c0-0.169-0.004-0.307-0.012-0.414c-0.008-0.107-0.025-0.216-0.055-0.324s-0.071-0.192-0.127-0.251
		c-0.055-0.058-0.13-0.105-0.225-0.143c-0.096-0.036-0.212-0.055-0.35-0.055c-0.105,0-0.197,0.013-0.278,0.039
		c-0.082,0.025-0.149,0.058-0.205,0.097c-0.056,0.038-0.102,0.093-0.141,0.163c-0.038,0.07-0.067,0.139-0.087,0.204
		c-0.021,0.066-0.035,0.151-0.046,0.256c-0.011,0.105-0.018,0.196-0.021,0.275c-0.004,0.08-0.005,0.183-0.005,0.309v3.077
		c0,0.46,0.057,0.797,0.17,1.01c0.113,0.213,0.33,0.319,0.648,0.319c0.166,0,0.305-0.031,0.416-0.094
		c0.112-0.064,0.2-0.158,0.263-0.285c0.063-0.128,0.107-0.273,0.134-0.438c0.025-0.164,0.039-0.362,0.039-0.596v-0.625h-0.824
		v-0.897h2.075v3.873h-0.901l-0.102-0.772C324.437,396.886,324.006,397.178,323.375,397.178z"/>
	<path style="fill:#FFFFFF;" d="M326.719,397.077v-7.626h3.191v0.979h-1.803v2.189h1.426v0.979h-1.426v2.517h1.826v0.961H326.719z"
		/>
</g>
<linearGradient id="SVGID_00000146472153609751059330000017181391738794265739_" gradientUnits="userSpaceOnUse" x1="118.9115" y1="-574.9667" x2="204.2542" y2="-574.9667" gradientTransform="matrix(0.866 -0.5 0 1.1547 290.2397 1027.7382)">
	<stop  offset="0" style="stop-color:#F88B93"/>
	<stop  offset="0.147" style="stop-color:#F99595"/>
	<stop  offset="0.6976" style="stop-color:#FBB69C"/>
	<stop  offset="1" style="stop-color:#FCC29F"/>
</linearGradient>
<path style="fill:url(#SVGID_00000146472153609751059330000017181391738794265739_);" d="M393.783,304.606
	c-0.195,0-0.386-0.102-0.49-0.282c-0.155-0.27-0.064-0.615,0.207-0.772l72.777-42.018c0.271-0.153,0.616-0.061,0.771,0.207
	c0.155,0.27,0.064,0.615-0.207,0.772l-72.777,42.017C393.975,304.582,393.878,304.606,393.783,304.606z"/>
<g>
	<g>
		<g>
			<g>
				<g>
					<path style="opacity:0.4;fill:#0B0244;" d="M253.397,300.395l-47.44-27.389c-2.524-1.457-2.208-4.003,0.707-5.686
						l46.024-26.572c2.915-1.683,7.324-1.866,9.848-0.408l47.44,27.389c2.524,1.457,2.208,4.003-0.707,5.686l-46.024,26.572
						C260.331,301.67,255.921,301.853,253.397,300.395z"/>
					
						<linearGradient id="SVGID_00000065786735160666657110000006903761773067313837_" gradientUnits="userSpaceOnUse" x1="190.9009" y1="270.3675" x2="325.0327" y2="270.3675">
						<stop  offset="0" style="stop-color:#FCC29F"/>
						<stop  offset="0.3024" style="stop-color:#FBB69C"/>
						<stop  offset="0.853" style="stop-color:#F99595"/>
						<stop  offset="1" style="stop-color:#F88B93"/>
					</linearGradient>
					<path style="fill:url(#SVGID_00000065786735160666657110000006903761773067313837_);" d="M257.603,309.316
						c-2.089,0-4.085-0.422-5.576-1.282l0,0l-58.734-33.91c-1.543-0.892-2.393-2.15-2.392-3.547c0-1.642,1.19-3.272,3.267-4.472
						l56.982-32.898c3.758-2.17,9.48-2.398,12.757-0.506l58.734,33.91c1.543,0.892,2.393,2.15,2.392,3.547
						c0,1.643-1.19,3.272-3.268,4.472l-56.98,32.897C262.737,308.71,260.104,309.316,257.603,309.316z M252.591,307.055
						c2.967,1.713,8.184,1.485,11.629-0.506l56.98-32.897c1.718-0.991,2.703-2.265,2.703-3.493c0-0.976-0.648-1.888-1.827-2.568
						l-58.734-33.91c-2.965-1.713-8.182-1.486-11.628,0.506l-56.981,32.897c-1.718,0.991-2.703,2.265-2.703,3.493
						c0,0.976,0.648,1.888,1.827,2.568L252.591,307.055z"/>
					
						<linearGradient id="SVGID_00000152264393997671623130000000647543045305591979_" gradientUnits="userSpaceOnUse" x1="23.2421" y1="394.4366" x2="140.4079" y2="355.2" gradientTransform="matrix(0.866 0.5 -0.866 0.5 505.6548 24.8744)">
						<stop  offset="0" style="stop-color:#6F2482"/>
						<stop  offset="1" style="stop-color:#812C85"/>
					</linearGradient>
					<path style="fill:url(#SVGID_00000152264393997671623130000000647543045305591979_);" d="M252.281,283.63l-59.027-34.079
						c-3.141-1.813-2.747-4.981,0.88-7.075l57.265,30.544c3.627-2.094,9.113-2.321,12.254-0.508l59.027-29.527
						c3.141,1.813,2.747,4.981-0.88,7.075l-57.265,33.062C260.908,285.216,255.422,285.443,252.281,283.63z"/>
					
						<linearGradient id="SVGID_00000141429362552251210820000010107326524017802631_" gradientUnits="userSpaceOnUse" x1="317.4385" y1="273.373" x2="244.442" y2="231.1706">
						<stop  offset="0" style="stop-color:#FCBA9D"/>
						<stop  offset="0.5634" style="stop-color:#EE8594"/>
						<stop  offset="1" style="stop-color:#E4608D"/>
					</linearGradient>
					<path style="fill:url(#SVGID_00000141429362552251210820000010107326524017802631_);" d="M324.8,231.781h-66.833v39.523
						v-25.037v38.569c2.299-0.056,4.683-0.627,6.568-1.716L321.8,250.06c1.884-1.088,2.887-2.465,2.984-3.792h0.016V231.781z"/>
					<path style="opacity:0.5;fill:#FCC29F;" d="M323.53,231.781v13.499h-0.016c-0.097,1.327-1.1,2.704-2.984,3.792l-57.265,33.062
						c-1.539,0.888-3.411,1.414-5.298,1.614v1.09c2.299-0.056,4.683-0.627,6.568-1.716L321.8,250.06
						c1.884-1.088,2.887-2.465,2.984-3.792h0.016v-14.486H323.53z"/>
					
						<linearGradient id="SVGID_00000108273611107066207660000006422010616134608013_" gradientUnits="userSpaceOnUse" x1="149.9577" y1="206.1584" x2="267.3957" y2="263.7304">
						<stop  offset="0" style="stop-color:#6F2482"/>
						<stop  offset="1" style="stop-color:#AB3588"/>
					</linearGradient>
					<path style="fill:url(#SVGID_00000108273611107066207660000006422010616134608013_);" d="M191.134,231.781v14.486h0.016
						c-0.089,1.227,0.595,2.412,2.104,3.283l59.026,34.079c1.509,0.871,3.561,1.259,5.686,1.208v-38.569v25.037v-39.523H191.134z"/>
					
						<linearGradient id="SVGID_00000124859242086567633530000010679786841186018713_" gradientUnits="userSpaceOnUse" x1="5.272" y1="369.5474" x2="122.4378" y2="330.3109" gradientTransform="matrix(0.866 0.5 -0.866 0.5 505.6548 24.8744)">
						<stop  offset="0" style="stop-color:#451368"/>
						<stop  offset="1" style="stop-color:#812C85"/>
					</linearGradient>
					<path style="fill:url(#SVGID_00000124859242086567633530000010679786841186018713_);" d="M252.281,269.143l-59.027-34.079
						c-3.141-1.813-2.747-4.981,0.88-7.075l57.265-33.062c3.627-2.094,9.113-2.321,12.254-0.508l59.027,34.079
						c3.141,1.813,2.747,4.981-0.88,7.075l-57.265,33.062C260.908,270.729,255.422,270.957,252.281,269.143z"/>
					<path style="fill:#FA9F97;" d="M321.8,233.739l-57.265,33.062c-3.627,2.094-9.113,2.321-12.254,0.508l-59.027-34.079
						c-1.046-0.604-1.691-1.359-1.964-2.173c-0.473,1.476,0.159,2.965,1.964,4.007l59.027,34.079
						c3.141,1.813,8.627,1.586,12.254-0.508l57.265-33.062c2.419-1.397,3.391-3.27,2.843-4.902
						C324.293,231.764,323.342,232.848,321.8,233.739z"/>
				</g>
				<g>
					
						<linearGradient id="SVGID_00000169548305900337071070000012141221958599153849_" gradientUnits="userSpaceOnUse" x1="21.1142" y1="363.5385" x2="105.5666" y2="335.257" gradientTransform="matrix(0.866 0.5 -0.866 0.5 505.6548 24.8744)">
						<stop  offset="0" style="stop-color:#6F2482"/>
						<stop  offset="1" style="stop-color:#812C85"/>
					</linearGradient>
					<path style="fill:url(#SVGID_00000169548305900337071070000012141221958599153849_);" d="M253.868,258.185l-42.546-24.564
						c-2.264-1.307-1.98-3.59,0.634-5.099l41.276-23.831c2.614-1.509,6.568-1.673,8.832-0.366l42.546,24.564
						c2.264,1.307,1.98,3.59-0.634,5.099l-41.276,23.831C260.087,259.328,256.132,259.491,253.868,258.185z"/>
					
						<linearGradient id="SVGID_00000020387600826203173620000008404877130095129984_" gradientUnits="userSpaceOnUse" x1="245.5952" y1="229.1215" x2="327.0778" y2="243.1687">
						<stop  offset="0" style="stop-color:#C5468F"/>
						<stop  offset="1" style="stop-color:#F88B93"/>
					</linearGradient>
					<path style="fill:url(#SVGID_00000020387600826203173620000008404877130095129984_);" d="M306.14,220.083h-48.173v-16.63
						v27.801v27.801c1.657-0.04,3.376-0.452,4.734-1.237l41.276-23.831c1.358-0.784,2.081-1.777,2.151-2.733h0.012V220.083z"/>
					
						<linearGradient id="SVGID_00000098208317453964891910000004790910683948407978_" gradientUnits="userSpaceOnUse" x1="179.8036" y1="201.8266" x2="264.9044" y2="243.5457">
						<stop  offset="0" style="stop-color:#6F2482"/>
						<stop  offset="1" style="stop-color:#AB3588"/>
					</linearGradient>
					<path style="fill:url(#SVGID_00000098208317453964891910000004790910683948407978_);" d="M209.794,220.083v11.171h0.012
						c-0.064,0.884,0.429,1.738,1.517,2.366l42.546,24.564c1.087,0.628,2.567,0.908,4.098,0.871v-27.801v17.317v-28.488H209.794z"/>
					
						<linearGradient id="SVGID_00000110459567224472367930000017724568581867242428_" gradientUnits="userSpaceOnUse" x1="9.9432" y1="352.3675" x2="94.3956" y2="324.086" gradientTransform="matrix(0.866 0.5 -0.866 0.5 505.6548 24.8744)">
						<stop  offset="0" style="stop-color:#6F2482"/>
						<stop  offset="1" style="stop-color:#812C85"/>
					</linearGradient>
					<path style="fill:url(#SVGID_00000110459567224472367930000017724568581867242428_);" d="M253.868,247.014l-42.546-24.564
						c-2.264-1.307-1.98-3.59,0.634-5.099l41.276-23.831c2.614-1.509,6.568-1.673,8.832-0.366l42.546,24.564
						c2.264,1.307,1.98,3.59-0.634,5.099l-41.276,23.831C260.087,248.157,256.132,248.32,253.868,247.014z"/>
					<path style="fill:#FA9F97;" d="M303.977,221.193l-41.276,23.831c-2.614,1.509-6.568,1.673-8.832,0.366l-42.546-24.564
						c-0.696-0.402-1.123-0.901-1.343-1.437c-0.45,1.119-0.028,2.268,1.343,3.06l42.546,24.564c2.264,1.307,6.218,1.143,8.832-0.366
						l41.276-23.831c1.81-1.045,2.474-2.456,1.977-3.662C305.662,219.883,305.008,220.598,303.977,221.193z"/>
					
						<linearGradient id="SVGID_00000016795552053513308710000006859785952218815134_" gradientUnits="userSpaceOnUse" x1="24.0116" y1="347.6562" x2="80.3489" y2="328.7899" gradientTransform="matrix(0.866 0.5 -0.866 0.5 505.6548 24.8744)">
						<stop  offset="0" style="stop-color:#6F2482"/>
						<stop  offset="1" style="stop-color:#812C85"/>
					</linearGradient>
					<path style="fill:url(#SVGID_00000016795552053513308710000006859785952218815134_);" d="M255.233,238.048l-28.382-16.386
						c-1.51-0.872-1.321-2.395,0.423-3.402l27.535-15.897c1.744-1.007,4.382-1.116,5.892-0.244l28.382,16.386
						c1.51,0.872,1.321,2.395-0.423,3.402l-27.535,15.897C259.381,238.811,256.743,238.92,255.233,238.048z"/>
					
						<linearGradient id="SVGID_00000158716673660655239300000005203133191617536190_" gradientUnits="userSpaceOnUse" x1="220.9041" y1="229.6883" x2="293.2835" y2="205.4498">
						<stop  offset="0" style="stop-color:#6F2482"/>
						<stop  offset="1" style="stop-color:#AB3588"/>
					</linearGradient>
					<path style="fill:url(#SVGID_00000158716673660655239300000005203133191617536190_);" d="M226.851,221.662l5.284,3.051
						l22.674-13.091c1.744-1.007,4.382-1.116,5.892-0.244l23.098,13.336l4.861-2.807c1.744-1.007,1.933-2.53,0.423-3.402
						l-28.382-16.386c-1.51-0.872-4.148-0.762-5.892,0.244l-27.535,15.897C225.53,219.267,225.341,220.79,226.851,221.662z"/>
				</g>
				
					<linearGradient id="SVGID_00000098904900451854276040000011714854102855052972_" gradientUnits="userSpaceOnUse" x1="221.2164" y1="220.9336" x2="264.3767" y2="206.48">
					<stop  offset="0" style="stop-color:#C5468F"/>
					<stop  offset="1" style="stop-color:#F88B93"/>
				</linearGradient>
				<path style="fill:url(#SVGID_00000098904900451854276040000011714854102855052972_);" d="M257.967,201.538
					c-1.105,0.027-2.252,0.302-3.158,0.825l-27.535,15.897c-1.744,1.007-1.933,2.53-0.423,3.402l5.284,3.051l22.674-13.091
					c0.906-0.523,2.053-0.798,3.158-0.825V201.538z"/>
			</g>
		</g>
		<g>
			<g>
				<g>
					
						<linearGradient id="SVGID_00000177471199913246985650000014471937622710965156_" gradientUnits="userSpaceOnUse" x1="-7.2973" y1="363.8972" x2="109.8685" y2="324.6606" gradientTransform="matrix(0.866 0.5 -0.866 0.5 505.6548 24.8744)">
						<stop  offset="0" style="stop-color:#6F2482"/>
						<stop  offset="1" style="stop-color:#812C85"/>
					</linearGradient>
					<path style="fill:url(#SVGID_00000177471199913246985650000014471937622710965156_);" d="M252.281,253.09l-59.027-34.079
						c-3.141-1.813-2.747-4.981,0.88-7.075l57.265,30.544c3.627-2.094,9.113-2.321,12.254-0.508l59.027-29.527
						c3.141,1.813,2.747,4.981-0.88,7.075l-57.265,33.062C260.908,254.676,255.422,254.904,252.281,253.09z"/>
					
						<linearGradient id="SVGID_00000076597179621487051970000003111926488047059848_" gradientUnits="userSpaceOnUse" x1="317.4385" y1="242.8336" x2="244.442" y2="200.6311">
						<stop  offset="0" style="stop-color:#FCBA9D"/>
						<stop  offset="0.5634" style="stop-color:#EE8594"/>
						<stop  offset="1" style="stop-color:#E4608D"/>
					</linearGradient>
					<path style="fill:url(#SVGID_00000076597179621487051970000003111926488047059848_);" d="M324.8,201.242h-66.833v39.523
						v-25.037v38.569c2.299-0.055,4.683-0.627,6.568-1.715L321.8,219.52c1.884-1.088,2.887-2.465,2.984-3.792h0.016V201.242z"/>
					<path style="opacity:0.5;fill:#FCC29F;" d="M323.53,201.242v13.499h-0.016c-0.097,1.327-1.1,2.704-2.984,3.792l-57.265,33.062
						c-1.539,0.888-3.411,1.414-5.298,1.614v1.089c2.299-0.055,4.683-0.627,6.568-1.715L321.8,219.52
						c1.884-1.088,2.887-2.465,2.984-3.792h0.016v-14.486H323.53z"/>
					
						<linearGradient id="SVGID_00000045618330414097805950000017914219908594964654_" gradientUnits="userSpaceOnUse" x1="149.9577" y1="175.619" x2="267.3957" y2="233.191">
						<stop  offset="0" style="stop-color:#6F2482"/>
						<stop  offset="1" style="stop-color:#AB3588"/>
					</linearGradient>
					<path style="fill:url(#SVGID_00000045618330414097805950000017914219908594964654_);" d="M191.134,201.242v14.486h0.016
						c-0.089,1.227,0.595,2.412,2.104,3.283l59.026,34.079c1.509,0.871,3.561,1.259,5.686,1.208v-38.569v25.037v-39.523H191.134z"/>
					
						<linearGradient id="SVGID_00000081637335221361614410000006642821854890307492_" gradientUnits="userSpaceOnUse" x1="-25.2674" y1="339.008" x2="91.8984" y2="299.7715" gradientTransform="matrix(0.866 0.5 -0.866 0.5 505.6548 24.8744)">
						<stop  offset="0" style="stop-color:#451368"/>
						<stop  offset="1" style="stop-color:#812C85"/>
					</linearGradient>
					<path style="fill:url(#SVGID_00000081637335221361614410000006642821854890307492_);" d="M252.281,238.604l-59.027-34.079
						c-3.141-1.813-2.747-4.981,0.88-7.075l57.265-33.062c3.627-2.094,9.113-2.321,12.254-0.508l59.027,34.079
						c3.141,1.813,2.747,4.981-0.88,7.075l-57.265,33.062C260.908,240.19,255.422,240.417,252.281,238.604z"/>
					<path style="fill:#FA9F97;" d="M321.8,203.199l-57.265,33.062c-3.627,2.094-9.113,2.321-12.254,0.508l-59.027-34.079
						c-1.046-0.604-1.691-1.359-1.964-2.173c-0.473,1.476,0.159,2.965,1.964,4.007l59.027,34.079
						c3.141,1.813,8.627,1.586,12.254-0.508l57.265-33.062c2.419-1.397,3.391-3.27,2.843-4.902
						C324.293,201.224,323.342,202.309,321.8,203.199z"/>
				</g>
				<g>
					
						<linearGradient id="SVGID_00000021819211570701405760000015515846470657642370_" gradientUnits="userSpaceOnUse" x1="-9.4252" y1="332.9991" x2="75.0272" y2="304.7176" gradientTransform="matrix(0.866 0.5 -0.866 0.5 505.6548 24.8744)">
						<stop  offset="0" style="stop-color:#6F2482"/>
						<stop  offset="1" style="stop-color:#812C85"/>
					</linearGradient>
					<path style="fill:url(#SVGID_00000021819211570701405760000015515846470657642370_);" d="M253.868,227.645l-42.546-24.564
						c-2.264-1.307-1.98-3.59,0.634-5.099l41.276-23.831c2.614-1.509,6.568-1.673,8.832-0.366l42.546,24.564
						c2.264,1.307,1.98,3.59-0.634,5.099l-41.276,23.831C260.087,228.788,256.132,228.952,253.868,227.645z"/>
					
						<linearGradient id="SVGID_00000174590630887356589410000013303838228572549773_" gradientUnits="userSpaceOnUse" x1="245.5952" y1="198.5821" x2="327.0778" y2="212.6293">
						<stop  offset="0" style="stop-color:#C5468F"/>
						<stop  offset="1" style="stop-color:#F88B93"/>
					</linearGradient>
					<path style="fill:url(#SVGID_00000174590630887356589410000013303838228572549773_);" d="M306.14,189.544h-48.173v-16.63
						v27.801v27.801c1.657-0.04,3.376-0.452,4.734-1.237l41.276-23.831c1.358-0.784,2.081-1.777,2.151-2.733h0.012V189.544z"/>
					
						<linearGradient id="SVGID_00000075154695611588759820000005806176391194330013_" gradientUnits="userSpaceOnUse" x1="179.8036" y1="171.2872" x2="264.9044" y2="213.0063">
						<stop  offset="0" style="stop-color:#6F2482"/>
						<stop  offset="1" style="stop-color:#AB3588"/>
					</linearGradient>
					<path style="fill:url(#SVGID_00000075154695611588759820000005806176391194330013_);" d="M209.794,189.544v11.171h0.012
						c-0.064,0.884,0.429,1.738,1.517,2.366l42.546,24.564c1.087,0.628,2.567,0.908,4.098,0.87v-27.801v17.317v-28.488H209.794z"/>
					
						<linearGradient id="SVGID_00000084501408257482269220000005234518910924143767_" gradientUnits="userSpaceOnUse" x1="-20.5963" y1="321.828" x2="63.8562" y2="293.5465" gradientTransform="matrix(0.866 0.5 -0.866 0.5 505.6548 24.8744)">
						<stop  offset="0" style="stop-color:#6F2482"/>
						<stop  offset="1" style="stop-color:#812C85"/>
					</linearGradient>
					<path style="fill:url(#SVGID_00000084501408257482269220000005234518910924143767_);" d="M253.868,216.474l-42.546-24.564
						c-2.264-1.307-1.98-3.59,0.634-5.099l41.276-23.831c2.614-1.509,6.568-1.673,8.832-0.366l42.546,24.564
						c2.264,1.307,1.98,3.59-0.634,5.099l-41.276,23.831C260.087,217.617,256.132,217.781,253.868,216.474z"/>
					<path style="fill:#FA9F97;" d="M303.977,190.654l-41.276,23.831c-2.614,1.509-6.568,1.673-8.832,0.366l-42.546-24.564
						c-0.696-0.402-1.123-0.901-1.343-1.437c-0.45,1.119-0.028,2.268,1.343,3.06l42.546,24.564c2.264,1.307,6.218,1.143,8.832-0.366
						l41.276-23.831c1.81-1.045,2.474-2.456,1.977-3.663C305.662,189.343,305.008,190.059,303.977,190.654z"/>
					
						<linearGradient id="SVGID_00000106859145943486429850000006875113013793379759_" gradientUnits="userSpaceOnUse" x1="-6.5278" y1="317.1168" x2="49.8095" y2="298.2505" gradientTransform="matrix(0.866 0.5 -0.866 0.5 505.6548 24.8744)">
						<stop  offset="0" style="stop-color:#6F2482"/>
						<stop  offset="1" style="stop-color:#812C85"/>
					</linearGradient>
					<path style="fill:url(#SVGID_00000106859145943486429850000006875113013793379759_);" d="M255.233,207.509l-28.382-16.386
						c-1.51-0.872-1.321-2.395,0.423-3.402l27.535-15.897c1.744-1.007,4.382-1.116,5.892-0.244l28.382,16.386
						c1.51,0.872,1.321,2.395-0.423,3.402l-27.535,15.897C259.381,208.271,256.743,208.381,255.233,207.509z"/>
					
						<linearGradient id="SVGID_00000129197561973058228700000008406306296441924227_" gradientUnits="userSpaceOnUse" x1="220.9041" y1="199.1489" x2="293.2835" y2="174.9104">
						<stop  offset="0" style="stop-color:#6F2482"/>
						<stop  offset="1" style="stop-color:#AB3588"/>
					</linearGradient>
					<path style="fill:url(#SVGID_00000129197561973058228700000008406306296441924227_);" d="M226.851,191.122l5.284,3.051
						l22.674-13.091c1.744-1.007,4.382-1.116,5.892-0.244l23.098,13.336l4.861-2.807c1.744-1.007,1.933-2.53,0.423-3.402
						l-28.382-16.386c-1.51-0.872-4.148-0.762-5.892,0.244l-27.535,15.897C225.53,188.727,225.341,190.25,226.851,191.122z"/>
				</g>
				
					<linearGradient id="SVGID_00000066482371164835312850000001026107829023153061_" gradientUnits="userSpaceOnUse" x1="221.2164" y1="190.3942" x2="264.3767" y2="175.9406">
					<stop  offset="0" style="stop-color:#C5468F"/>
					<stop  offset="1" style="stop-color:#F88B93"/>
				</linearGradient>
				<path style="fill:url(#SVGID_00000066482371164835312850000001026107829023153061_);" d="M257.967,170.998
					c-1.105,0.027-2.252,0.302-3.158,0.825l-27.535,15.897c-1.744,1.007-1.933,2.53-0.423,3.402l5.284,3.051l22.674-13.091
					c0.906-0.523,2.053-0.798,3.158-0.825V170.998z"/>
			</g>
		</g>
		<g>
			<g>
				<g>
					
						<linearGradient id="SVGID_00000089539772234698683980000016163033360635052697_" gradientUnits="userSpaceOnUse" x1="-37.8367" y1="333.3578" x2="79.3291" y2="294.1212" gradientTransform="matrix(0.866 0.5 -0.866 0.5 505.6548 24.8744)">
						<stop  offset="0" style="stop-color:#6F2482"/>
						<stop  offset="1" style="stop-color:#812C85"/>
					</linearGradient>
					<path style="fill:url(#SVGID_00000089539772234698683980000016163033360635052697_);" d="M252.281,222.551l-59.027-34.079
						c-3.141-1.813-2.747-4.981,0.88-7.075l57.265,30.544c3.627-2.094,9.113-2.321,12.254-0.508l59.027-29.527
						c3.141,1.813,2.747,4.981-0.88,7.075l-57.265,33.062C260.908,224.137,255.422,224.364,252.281,222.551z"/>
					
						<linearGradient id="SVGID_00000047768915190937231610000004805687996318013842_" gradientUnits="userSpaceOnUse" x1="317.4385" y1="212.2942" x2="244.442" y2="170.0918">
						<stop  offset="0" style="stop-color:#FCBA9D"/>
						<stop  offset="0.5634" style="stop-color:#EE8594"/>
						<stop  offset="1" style="stop-color:#E4608D"/>
					</linearGradient>
					<path style="fill:url(#SVGID_00000047768915190937231610000004805687996318013842_);" d="M324.8,170.703h-66.833v39.523
						v-25.037v38.569c2.299-0.055,4.683-0.627,6.568-1.715l57.265-33.062c1.884-1.088,2.887-2.465,2.984-3.792h0.016V170.703z"/>
					<path style="opacity:0.5;fill:#FCC29F;" d="M323.53,170.703v13.499h-0.016c-0.097,1.327-1.1,2.704-2.984,3.792l-57.265,33.062
						c-1.539,0.888-3.411,1.414-5.298,1.614v1.089c2.299-0.055,4.683-0.627,6.568-1.715l57.265-33.062
						c1.884-1.088,2.887-2.465,2.984-3.792h0.016v-14.486H323.53z"/>
					
						<linearGradient id="SVGID_00000013184318070879108090000008465242370125234324_" gradientUnits="userSpaceOnUse" x1="149.9577" y1="145.0796" x2="267.3957" y2="202.6516">
						<stop  offset="0" style="stop-color:#6F2482"/>
						<stop  offset="1" style="stop-color:#AB3588"/>
					</linearGradient>
					<path style="fill:url(#SVGID_00000013184318070879108090000008465242370125234324_);" d="M191.134,170.703v14.486h0.016
						c-0.089,1.227,0.595,2.412,2.104,3.283l59.026,34.079c1.509,0.871,3.561,1.259,5.686,1.208v-38.569v25.037v-39.523H191.134z"/>
					
						<linearGradient id="SVGID_00000075133599510359153700000013938024719305211808_" gradientUnits="userSpaceOnUse" x1="-55.8068" y1="308.4686" x2="61.359" y2="269.2321" gradientTransform="matrix(0.866 0.5 -0.866 0.5 505.6548 24.8744)">
						<stop  offset="0" style="stop-color:#451368"/>
						<stop  offset="1" style="stop-color:#812C85"/>
					</linearGradient>
					<path style="fill:url(#SVGID_00000075133599510359153700000013938024719305211808_);" d="M252.281,208.064l-59.027-34.079
						c-3.141-1.813-2.747-4.981,0.88-7.075l57.265-33.062c3.627-2.094,9.113-2.321,12.254-0.508l59.027,34.079
						c3.141,1.813,2.747,4.981-0.88,7.075l-57.265,33.062C260.908,209.65,255.422,209.878,252.281,208.064z"/>
					<path style="fill:#FA9F97;" d="M321.8,172.66l-57.265,33.062c-3.627,2.094-9.113,2.321-12.254,0.508l-59.027-34.079
						c-1.046-0.604-1.691-1.359-1.964-2.173c-0.473,1.476,0.159,2.965,1.964,4.007l59.027,34.079
						c3.141,1.813,8.627,1.586,12.254-0.508l57.265-33.062c2.419-1.397,3.391-3.27,2.843-4.902
						C324.293,170.685,323.342,171.769,321.8,172.66z"/>
				</g>
				<g>
					
						<linearGradient id="SVGID_00000096028303506911579060000017574802620736872619_" gradientUnits="userSpaceOnUse" x1="-39.9646" y1="302.4597" x2="44.4878" y2="274.1782" gradientTransform="matrix(0.866 0.5 -0.866 0.5 505.6548 24.8744)">
						<stop  offset="0" style="stop-color:#6F2482"/>
						<stop  offset="1" style="stop-color:#812C85"/>
					</linearGradient>
					<path style="fill:url(#SVGID_00000096028303506911579060000017574802620736872619_);" d="M253.868,197.106l-42.546-24.564
						c-2.264-1.307-1.98-3.59,0.634-5.099l41.276-23.831c2.614-1.509,6.568-1.673,8.832-0.366l42.546,24.564
						c2.264,1.307,1.98,3.59-0.634,5.099l-41.276,23.831C260.087,198.249,256.132,198.413,253.868,197.106z"/>
					
						<linearGradient id="SVGID_00000046319507178148636030000010969120920446626482_" gradientUnits="userSpaceOnUse" x1="245.5952" y1="168.0427" x2="327.0778" y2="182.0899">
						<stop  offset="0" style="stop-color:#C5468F"/>
						<stop  offset="1" style="stop-color:#F88B93"/>
					</linearGradient>
					<path style="fill:url(#SVGID_00000046319507178148636030000010969120920446626482_);" d="M306.14,159.005h-48.173v-16.63
						v27.801v27.801c1.657-0.04,3.376-0.452,4.734-1.237l41.276-23.831c1.358-0.784,2.081-1.777,2.151-2.733h0.012V159.005z"/>
					
						<linearGradient id="SVGID_00000025422264291324680630000007679206543416183972_" gradientUnits="userSpaceOnUse" x1="179.8036" y1="140.7477" x2="264.9044" y2="182.4669">
						<stop  offset="0" style="stop-color:#6F2482"/>
						<stop  offset="1" style="stop-color:#AB3588"/>
					</linearGradient>
					<path style="fill:url(#SVGID_00000025422264291324680630000007679206543416183972_);" d="M209.794,159.005v11.171h0.012
						c-0.064,0.884,0.429,1.738,1.517,2.366l42.546,24.564c1.087,0.628,2.567,0.908,4.098,0.87v-27.801v17.317v-28.488H209.794z"/>
					
						<linearGradient id="SVGID_00000005251025047338290080000013186828233624668860_" gradientUnits="userSpaceOnUse" x1="-51.1357" y1="291.2886" x2="33.3168" y2="263.0071" gradientTransform="matrix(0.866 0.5 -0.866 0.5 505.6548 24.8744)">
						<stop  offset="0" style="stop-color:#6F2482"/>
						<stop  offset="1" style="stop-color:#812C85"/>
					</linearGradient>
					<path style="fill:url(#SVGID_00000005251025047338290080000013186828233624668860_);" d="M253.868,185.935l-42.546-24.564
						c-2.264-1.307-1.98-3.59,0.634-5.099l41.276-23.831c2.614-1.509,6.568-1.673,8.832-0.366l42.546,24.564
						c2.264,1.307,1.98,3.59-0.634,5.099l-41.276,23.831C260.087,187.078,256.132,187.242,253.868,185.935z"/>
					<path style="fill:#FA9F97;" d="M303.977,160.115l-41.276,23.831c-2.614,1.509-6.568,1.673-8.832,0.366l-42.546-24.564
						c-0.696-0.402-1.123-0.901-1.343-1.437c-0.45,1.119-0.028,2.268,1.343,3.06l42.546,24.564c2.264,1.307,6.218,1.143,8.832-0.366
						l41.276-23.831c1.81-1.045,2.474-2.456,1.977-3.663C305.662,158.804,305.008,159.52,303.977,160.115z"/>
					
						<linearGradient id="SVGID_00000160182034985216375140000004669059257360092077_" gradientUnits="userSpaceOnUse" x1="-37.0672" y1="286.5774" x2="19.2701" y2="267.7111" gradientTransform="matrix(0.866 0.5 -0.866 0.5 505.6548 24.8744)">
						<stop  offset="0" style="stop-color:#6F2482"/>
						<stop  offset="1" style="stop-color:#812C85"/>
					</linearGradient>
					<path style="fill:url(#SVGID_00000160182034985216375140000004669059257360092077_);" d="M255.233,176.969l-28.382-16.386
						c-1.51-0.872-1.321-2.395,0.423-3.402l27.535-15.897c1.744-1.007,4.382-1.116,5.892-0.244l28.382,16.386
						c1.51,0.872,1.321,2.395-0.423,3.402l-27.535,15.897C259.381,177.732,256.743,177.841,255.233,176.969z"/>
					
						<linearGradient id="SVGID_00000004538620389981145400000015386036511878811011_" gradientUnits="userSpaceOnUse" x1="220.9041" y1="168.6095" x2="293.2835" y2="144.371">
						<stop  offset="0" style="stop-color:#6F2482"/>
						<stop  offset="1" style="stop-color:#AB3588"/>
					</linearGradient>
					<path style="fill:url(#SVGID_00000004538620389981145400000015386036511878811011_);" d="M226.851,160.583l5.284,3.051
						l22.674-13.091c1.744-1.007,4.382-1.116,5.892-0.244l23.098,13.336l4.861-2.806c1.744-1.007,1.933-2.53,0.423-3.402
						l-28.382-16.386c-1.51-0.872-4.148-0.763-5.892,0.244l-27.535,15.897C225.53,158.188,225.341,159.711,226.851,160.583z"/>
				</g>
				
					<linearGradient id="SVGID_00000055685646008435303630000001404698638591180674_" gradientUnits="userSpaceOnUse" x1="221.2164" y1="159.8548" x2="264.3767" y2="145.4012">
					<stop  offset="0" style="stop-color:#C5468F"/>
					<stop  offset="1" style="stop-color:#F88B93"/>
				</linearGradient>
				<path style="fill:url(#SVGID_00000055685646008435303630000001404698638591180674_);" d="M257.967,140.459
					c-1.105,0.027-2.252,0.302-3.158,0.825l-27.535,15.897c-1.744,1.007-1.933,2.53-0.423,3.402l5.284,3.051l22.674-13.091
					c0.906-0.523,2.053-0.798,3.158-0.825V140.459z"/>
			</g>
		</g>
		<g>
			<g>
				<g>
					
						<linearGradient id="SVGID_00000174595298167389725880000002667421793679054741_" gradientUnits="userSpaceOnUse" x1="-68.3761" y1="302.8184" x2="48.7897" y2="263.5818" gradientTransform="matrix(0.866 0.5 -0.866 0.5 505.6548 24.8744)">
						<stop  offset="0" style="stop-color:#6F2482"/>
						<stop  offset="1" style="stop-color:#812C85"/>
					</linearGradient>
					<path style="fill:url(#SVGID_00000174595298167389725880000002667421793679054741_);" d="M252.281,192.012l-59.027-34.079
						c-3.141-1.813-2.747-4.981,0.88-7.075l57.265,30.544c3.627-2.094,9.113-2.321,12.254-0.508l59.027-29.527
						c3.141,1.813,2.747,4.981-0.88,7.075l-57.265,33.062C260.908,193.598,255.422,193.825,252.281,192.012z"/>
					
						<linearGradient id="SVGID_00000005233361180414357140000001745266712504881825_" gradientUnits="userSpaceOnUse" x1="317.4385" y1="181.7548" x2="244.442" y2="139.5524">
						<stop  offset="0" style="stop-color:#FCBA9D"/>
						<stop  offset="0.5634" style="stop-color:#EE8594"/>
						<stop  offset="1" style="stop-color:#E4608D"/>
					</linearGradient>
					<path style="fill:url(#SVGID_00000005233361180414357140000001745266712504881825_);" d="M324.8,140.163h-66.833v39.523V154.65
						v38.569c2.299-0.055,4.683-0.627,6.568-1.715l57.265-33.062c1.884-1.088,2.887-2.465,2.984-3.792h0.016V140.163z"/>
					<path style="opacity:0.5;fill:#FCC29F;" d="M323.53,140.163v13.499h-0.016c-0.097,1.327-1.1,2.704-2.984,3.792l-57.265,33.062
						c-1.539,0.888-3.411,1.414-5.298,1.614v1.09c2.299-0.055,4.683-0.627,6.568-1.715l57.265-33.062
						c1.884-1.088,2.887-2.465,2.984-3.792h0.016v-14.486H323.53z"/>
					
						<linearGradient id="SVGID_00000015355297541074680970000000207249855427685284_" gradientUnits="userSpaceOnUse" x1="149.9577" y1="114.5402" x2="267.3957" y2="172.1122">
						<stop  offset="0" style="stop-color:#6F2482"/>
						<stop  offset="1" style="stop-color:#AB3588"/>
					</linearGradient>
					<path style="fill:url(#SVGID_00000015355297541074680970000000207249855427685284_);" d="M191.134,140.163v14.486h0.016
						c-0.089,1.227,0.595,2.412,2.104,3.283l59.026,34.079c1.509,0.871,3.561,1.259,5.686,1.208V154.65v25.037v-39.523H191.134z"/>
					
						<linearGradient id="SVGID_00000070100068289771382160000001970253605292127129_" gradientUnits="userSpaceOnUse" x1="-86.3462" y1="277.9292" x2="30.8196" y2="238.6927" gradientTransform="matrix(0.866 0.5 -0.866 0.5 505.6548 24.8744)">
						<stop  offset="0" style="stop-color:#451368"/>
						<stop  offset="1" style="stop-color:#812C85"/>
					</linearGradient>
					<path style="fill:url(#SVGID_00000070100068289771382160000001970253605292127129_);" d="M252.281,177.525l-59.027-34.079
						c-3.141-1.813-2.747-4.981,0.88-7.075l57.265-33.062c3.627-2.094,9.113-2.321,12.254-0.508l59.027,34.079
						c3.141,1.813,2.747,4.981-0.88,7.075l-57.265,33.062C260.908,179.111,255.422,179.339,252.281,177.525z"/>
					<path style="fill:#FA9F97;" d="M321.8,142.12l-57.265,33.062c-3.627,2.094-9.113,2.321-12.254,0.508l-59.027-34.079
						c-1.046-0.604-1.691-1.359-1.964-2.173c-0.473,1.476,0.159,2.965,1.964,4.007l59.027,34.079
						c3.141,1.813,8.627,1.586,12.254-0.508l57.265-33.062c2.419-1.397,3.391-3.27,2.843-4.902
						C324.293,140.145,323.342,141.23,321.8,142.12z"/>
				</g>
				<g>
					
						<linearGradient id="SVGID_00000077284820227096867840000013962620222405947785_" gradientUnits="userSpaceOnUse" x1="-70.504" y1="271.9203" x2="13.9484" y2="243.6388" gradientTransform="matrix(0.866 0.5 -0.866 0.5 505.6548 24.8744)">
						<stop  offset="0" style="stop-color:#6F2482"/>
						<stop  offset="1" style="stop-color:#812C85"/>
					</linearGradient>
					<path style="fill:url(#SVGID_00000077284820227096867840000013962620222405947785_);" d="M253.868,166.566l-42.546-24.564
						c-2.264-1.307-1.98-3.59,0.634-5.099l41.276-23.831c2.614-1.509,6.568-1.673,8.832-0.366l42.546,24.564
						c2.264,1.307,1.98,3.59-0.634,5.099L262.701,166.2C260.087,167.709,256.132,167.873,253.868,166.566z"/>
					
						<linearGradient id="SVGID_00000169546817352200620140000017285021802334004622_" gradientUnits="userSpaceOnUse" x1="245.5952" y1="137.5033" x2="327.0778" y2="151.5505">
						<stop  offset="0" style="stop-color:#C5468F"/>
						<stop  offset="1" style="stop-color:#F88B93"/>
					</linearGradient>
					<path style="fill:url(#SVGID_00000169546817352200620140000017285021802334004622_);" d="M306.14,128.465h-48.173v-16.63
						v27.801v27.801c1.657-0.04,3.376-0.452,4.734-1.237l41.276-23.831c1.358-0.784,2.081-1.777,2.151-2.733h0.012V128.465z"/>
					
						<linearGradient id="SVGID_00000006679711687359597100000000290596802552666515_" gradientUnits="userSpaceOnUse" x1="179.8036" y1="110.2084" x2="264.9044" y2="151.9275">
						<stop  offset="0" style="stop-color:#6F2482"/>
						<stop  offset="1" style="stop-color:#AB3588"/>
					</linearGradient>
					<path style="fill:url(#SVGID_00000006679711687359597100000000290596802552666515_);" d="M209.794,128.465v11.171h0.012
						c-0.064,0.885,0.429,1.738,1.517,2.366l42.546,24.564c1.087,0.628,2.567,0.908,4.098,0.871v-27.801v17.317v-28.488H209.794z"/>
					
						<linearGradient id="SVGID_00000003102452896554209600000008901583228939016081_" gradientUnits="userSpaceOnUse" x1="-81.6751" y1="260.7492" x2="2.7774" y2="232.4677" gradientTransform="matrix(0.866 0.5 -0.866 0.5 505.6548 24.8744)">
						<stop  offset="0" style="stop-color:#6F2482"/>
						<stop  offset="1" style="stop-color:#812C85"/>
					</linearGradient>
					<path style="fill:url(#SVGID_00000003102452896554209600000008901583228939016081_);" d="M253.868,155.395l-42.546-24.564
						c-2.264-1.307-1.98-3.59,0.634-5.099l41.276-23.831c2.614-1.509,6.568-1.673,8.832-0.366l42.546,24.564
						c2.264,1.307,1.98,3.59-0.634,5.099l-41.276,23.831C260.087,156.538,256.132,156.702,253.868,155.395z"/>
					<path style="fill:#FA9F97;" d="M303.977,129.575l-41.276,23.831c-2.614,1.509-6.568,1.673-8.832,0.366l-42.546-24.564
						c-0.696-0.402-1.123-0.901-1.343-1.437c-0.45,1.119-0.028,2.268,1.343,3.06l42.546,24.564c2.264,1.307,6.218,1.143,8.832-0.366
						l41.276-23.831c1.81-1.045,2.474-2.456,1.977-3.663C305.662,128.264,305.008,128.98,303.977,129.575z"/>
					
						<linearGradient id="SVGID_00000106136677353003106980000008286992180530961794_" gradientUnits="userSpaceOnUse" x1="-67.6066" y1="256.038" x2="-11.2693" y2="237.1717" gradientTransform="matrix(0.866 0.5 -0.866 0.5 505.6548 24.8744)">
						<stop  offset="0" style="stop-color:#6F2482"/>
						<stop  offset="1" style="stop-color:#812C85"/>
					</linearGradient>
					<path style="fill:url(#SVGID_00000106136677353003106980000008286992180530961794_);" d="M255.233,146.43l-28.382-16.386
						c-1.51-0.872-1.321-2.395,0.423-3.402l27.535-15.897c1.744-1.007,4.382-1.116,5.892-0.244l28.382,16.386
						c1.51,0.872,1.321,2.395-0.423,3.402l-27.535,15.897C259.381,147.193,256.743,147.302,255.233,146.43z"/>
					
						<linearGradient id="SVGID_00000170994570772163171120000013783232628385044378_" gradientUnits="userSpaceOnUse" x1="220.9041" y1="138.0701" x2="293.2835" y2="113.8316">
						<stop  offset="0" style="stop-color:#6F2482"/>
						<stop  offset="1" style="stop-color:#AB3588"/>
					</linearGradient>
					<path style="fill:url(#SVGID_00000170994570772163171120000013783232628385044378_);" d="M226.851,130.044l5.284,3.051
						l22.674-13.091c1.744-1.007,4.382-1.116,5.892-0.244l23.098,13.336l4.861-2.806c1.744-1.007,1.933-2.53,0.423-3.402
						L260.701,110.5c-1.51-0.872-4.148-0.763-5.892,0.244l-27.535,15.897C225.53,127.649,225.341,129.172,226.851,130.044z"/>
				</g>
				
					<linearGradient id="SVGID_00000018231497363979165250000012836444484487423389_" gradientUnits="userSpaceOnUse" x1="221.2164" y1="129.3154" x2="264.3767" y2="114.8618">
					<stop  offset="0" style="stop-color:#C5468F"/>
					<stop  offset="1" style="stop-color:#F88B93"/>
				</linearGradient>
				<path style="fill:url(#SVGID_00000018231497363979165250000012836444484487423389_);" d="M257.967,109.92
					c-1.105,0.027-2.252,0.302-3.158,0.825l-27.535,15.897c-1.744,1.007-1.933,2.53-0.423,3.402l5.284,3.051l22.674-13.091
					c0.906-0.523,2.053-0.798,3.158-0.825V109.92z"/>
			</g>
		</g>
		<g>
			<g>
				<g>
					
						<linearGradient id="SVGID_00000074437412683209572860000018055937740208171453_" gradientUnits="userSpaceOnUse" x1="-98.9155" y1="272.279" x2="18.2503" y2="233.0424" gradientTransform="matrix(0.866 0.5 -0.866 0.5 505.6548 24.8744)">
						<stop  offset="0" style="stop-color:#6F2482"/>
						<stop  offset="1" style="stop-color:#812C85"/>
					</linearGradient>
					<path style="fill:url(#SVGID_00000074437412683209572860000018055937740208171453_);" d="M252.281,161.472l-59.027-34.079
						c-3.141-1.813-2.747-4.981,0.88-7.075l57.265,30.544c3.627-2.094,9.113-2.321,12.254-0.508l59.027-29.527
						c3.141,1.813,2.747,4.981-0.88,7.075l-57.265,33.062C260.908,163.058,255.422,163.286,252.281,161.472z"/>
					
						<linearGradient id="SVGID_00000005979082699172917760000012397335052662345395_" gradientUnits="userSpaceOnUse" x1="317.4385" y1="151.2154" x2="244.442" y2="109.013">
						<stop  offset="0" style="stop-color:#FCBA9D"/>
						<stop  offset="0.5634" style="stop-color:#EE8594"/>
						<stop  offset="1" style="stop-color:#E4608D"/>
					</linearGradient>
					<path style="fill:url(#SVGID_00000005979082699172917760000012397335052662345395_);" d="M324.8,109.624h-66.833v39.523V124.11
						v38.569c2.299-0.055,4.683-0.627,6.568-1.715l57.265-33.062c1.884-1.088,2.887-2.465,2.984-3.792h0.016V109.624z"/>
					<path style="opacity:0.5;fill:#FCC29F;" d="M323.53,109.624v13.498h-0.016c-0.097,1.327-1.1,2.704-2.984,3.792l-57.265,33.062
						c-1.539,0.888-3.411,1.414-5.298,1.614v1.09c2.299-0.055,4.683-0.627,6.568-1.715l57.265-33.062
						c1.884-1.088,2.887-2.465,2.984-3.792h0.016v-14.486H323.53z"/>
					
						<linearGradient id="SVGID_00000023974004655359476680000008833243317564932537_" gradientUnits="userSpaceOnUse" x1="149.9577" y1="84.0008" x2="267.3957" y2="141.5728">
						<stop  offset="0" style="stop-color:#6F2482"/>
						<stop  offset="1" style="stop-color:#AB3588"/>
					</linearGradient>
					<path style="fill:url(#SVGID_00000023974004655359476680000008833243317564932537_);" d="M191.134,109.624v14.486h0.016
						c-0.089,1.227,0.595,2.412,2.104,3.283l59.026,34.079c1.509,0.871,3.561,1.259,5.686,1.208V124.11v25.037v-39.523H191.134z"/>
					
						<linearGradient id="SVGID_00000182507581091039819340000005041609571627867555_" gradientUnits="userSpaceOnUse" x1="-116.8856" y1="247.3898" x2="0.2802" y2="208.1533" gradientTransform="matrix(0.866 0.5 -0.866 0.5 505.6548 24.8744)">
						<stop  offset="0" style="stop-color:#451368"/>
						<stop  offset="1" style="stop-color:#812C85"/>
					</linearGradient>
					<path style="fill:url(#SVGID_00000182507581091039819340000005041609571627867555_);" d="M252.281,146.986l-59.027-34.079
						c-3.141-1.813-2.747-4.981,0.88-7.075l57.265-33.062c3.627-2.094,9.113-2.321,12.254-0.508l59.027,34.079
						c3.141,1.813,2.747,4.981-0.88,7.075l-57.265,33.062C260.908,148.572,255.422,148.799,252.281,146.986z"/>
					<path style="fill:#FA9F97;" d="M321.8,111.581l-57.265,33.062c-3.627,2.094-9.113,2.321-12.254,0.508l-59.027-34.079
						c-1.046-0.604-1.691-1.359-1.964-2.173c-0.473,1.476,0.159,2.965,1.964,4.007l59.027,34.079
						c3.141,1.813,8.627,1.586,12.254-0.508l57.265-33.062c2.419-1.397,3.391-3.27,2.843-4.902
						C324.293,109.606,323.342,110.691,321.8,111.581z"/>
				</g>
				<g>
					<g>
						
							<linearGradient id="SVGID_00000088117728762977986970000017368340050005868462_" gradientUnits="userSpaceOnUse" x1="-101.0434" y1="241.3808" x2="-16.591" y2="213.0994" gradientTransform="matrix(0.866 0.5 -0.866 0.5 505.6548 24.8744)">
							<stop  offset="0" style="stop-color:#6F2482"/>
							<stop  offset="1" style="stop-color:#812C85"/>
						</linearGradient>
						<path style="fill:url(#SVGID_00000088117728762977986970000017368340050005868462_);" d="M253.868,136.027l-42.546-24.564
							c-2.264-1.307-1.98-3.59,0.634-5.099l41.276-23.831c2.614-1.509,6.568-1.673,8.832-0.366l42.546,24.564
							c2.264,1.307,1.98,3.59-0.634,5.099l-41.276,23.831C260.087,137.17,256.132,137.334,253.868,136.027z"/>
						
							<linearGradient id="SVGID_00000003813158778746906350000001227884409927520426_" gradientUnits="userSpaceOnUse" x1="245.5952" y1="106.9639" x2="327.0778" y2="121.0111">
							<stop  offset="0" style="stop-color:#C5468F"/>
							<stop  offset="1" style="stop-color:#F88B93"/>
						</linearGradient>
						<path style="fill:url(#SVGID_00000003813158778746906350000001227884409927520426_);" d="M306.14,97.926h-48.173v-16.63
							v27.801v27.801c1.657-0.04,3.376-0.452,4.734-1.237l41.276-23.831c1.358-0.784,2.081-1.777,2.151-2.733h0.012V97.926z"/>
						
							<linearGradient id="SVGID_00000168823111458611733580000002758879374164532392_" gradientUnits="userSpaceOnUse" x1="179.8036" y1="79.6689" x2="264.9044" y2="121.3881">
							<stop  offset="0" style="stop-color:#6F2482"/>
							<stop  offset="1" style="stop-color:#AB3588"/>
						</linearGradient>
						<path style="fill:url(#SVGID_00000168823111458611733580000002758879374164532392_);" d="M209.794,97.926v11.171h0.012
							c-0.064,0.884,0.429,1.738,1.517,2.366l42.546,24.564c1.087,0.628,2.567,0.908,4.098,0.87v-27.801v17.317V97.926H209.794z"/>
						
							<linearGradient id="SVGID_00000088832098549360722320000017395132314327050924_" gradientUnits="userSpaceOnUse" x1="-112.2145" y1="230.2098" x2="-27.762" y2="201.9283" gradientTransform="matrix(0.866 0.5 -0.866 0.5 505.6548 24.8744)">
							<stop  offset="0" style="stop-color:#6F2482"/>
							<stop  offset="1" style="stop-color:#812C85"/>
						</linearGradient>
						<path style="fill:url(#SVGID_00000088832098549360722320000017395132314327050924_);" d="M253.868,124.856l-42.546-24.564
							c-2.264-1.307-1.98-3.59,0.634-5.099l41.276-23.831c2.614-1.509,6.568-1.673,8.832-0.366l42.546,24.564
							c2.264,1.307,1.98,3.59-0.634,5.099l-41.276,23.831C260.087,125.999,256.132,126.163,253.868,124.856z"/>
						<path style="fill:#FA9F97;" d="M303.977,99.036l-41.276,23.831c-2.614,1.509-6.568,1.673-8.832,0.366l-42.546-24.564
							c-0.696-0.402-1.123-0.901-1.343-1.437c-0.45,1.119-0.028,2.268,1.343,3.06l42.546,24.564
							c2.264,1.307,6.218,1.143,8.832-0.366l41.276-23.831c1.81-1.045,2.474-2.456,1.977-3.662
							C305.662,97.725,305.008,98.441,303.977,99.036z"/>
						
							<linearGradient id="SVGID_00000183963811396172830800000005425385358415635366_" gradientUnits="userSpaceOnUse" x1="-98.146" y1="225.4986" x2="-41.8087" y2="206.6323" gradientTransform="matrix(0.866 0.5 -0.866 0.5 505.6548 24.8744)">
							<stop  offset="0" style="stop-color:#6F2482"/>
							<stop  offset="1" style="stop-color:#812C85"/>
						</linearGradient>
						<path style="fill:url(#SVGID_00000183963811396172830800000005425385358415635366_);" d="M255.233,115.891l-28.382-16.386
							c-1.51-0.872-1.321-2.395,0.423-3.402l27.535-15.897c1.744-1.007,4.382-1.116,5.892-0.244l28.382,16.386
							c1.51,0.872,1.321,2.395-0.423,3.402l-27.535,15.897C259.381,116.653,256.743,116.762,255.233,115.891z"/>
						
							<linearGradient id="SVGID_00000001622513170709380800000002557514427780109735_" gradientUnits="userSpaceOnUse" x1="220.9041" y1="107.5306" x2="293.2835" y2="83.2922">
							<stop  offset="0" style="stop-color:#6F2482"/>
							<stop  offset="1" style="stop-color:#AB3588"/>
						</linearGradient>
						<path style="fill:url(#SVGID_00000001622513170709380800000002557514427780109735_);" d="M226.851,99.504l5.284,3.051
							l22.674-13.091c1.744-1.007,4.382-1.116,5.892-0.244l23.098,13.336l4.861-2.807c1.744-1.007,1.933-2.53,0.423-3.402
							l-28.382-16.386c-1.51-0.872-4.148-0.763-5.892,0.244l-27.535,15.897C225.53,97.109,225.341,98.632,226.851,99.504z"/>
					</g>
					
						<linearGradient id="SVGID_00000163034771196843357700000000019319548752047280_" gradientUnits="userSpaceOnUse" x1="221.2164" y1="98.776" x2="264.3767" y2="84.3224">
						<stop  offset="0" style="stop-color:#C5468F"/>
						<stop  offset="1" style="stop-color:#F88B93"/>
					</linearGradient>
					<path style="fill:url(#SVGID_00000163034771196843357700000000019319548752047280_);" d="M257.967,79.38
						c-1.105,0.027-2.252,0.302-3.158,0.825l-27.535,15.897c-1.744,1.007-1.933,2.53-0.423,3.402l5.284,3.051l22.674-13.091
						c0.906-0.523,2.053-0.798,3.158-0.825V79.38z"/>
				</g>
			</g>
		</g>
	</g>
	<g>
		<g>
			<g>
				<g>
					<path style="opacity:0.4;fill:#0B0244;" d="M353.979,350.967L311.9,326.673c-2.239-1.293-1.958-3.551,0.627-5.043
						l40.823-23.569c2.585-1.493,6.496-1.655,8.735-0.362l42.078,24.294c2.239,1.293,1.958,3.551-0.627,5.043l-40.823,23.569
						C360.129,352.098,356.218,352.26,353.979,350.967z"/>
					
						<linearGradient id="SVGID_00000096022175651114499270000008197838466844421259_" gradientUnits="userSpaceOnUse" x1="297.3393" y1="324.3328" x2="418.7251" y2="324.3328">
						<stop  offset="0" style="stop-color:#FCC29F"/>
						<stop  offset="0.3024" style="stop-color:#FBB69C"/>
						<stop  offset="0.853" style="stop-color:#F99595"/>
						<stop  offset="1" style="stop-color:#F88B93"/>
					</linearGradient>
					<path style="fill:url(#SVGID_00000096022175651114499270000008197838466844421259_);" d="M357.704,359.601
						c-1.898,0-3.714-0.383-5.069-1.165l0,0l-53.105-30.66c-1.412-0.816-2.19-1.972-2.19-3.254c0-1.505,1.087-2.995,2.982-4.09
						l51.521-29.745c3.411-1.97,8.611-2.175,11.589-0.457l53.104,30.66c1.412,0.815,2.19,1.972,2.19,3.254
						c0,1.505-1.087,2.995-2.981,4.09l-51.521,29.745C362.365,359.052,359.975,359.601,357.704,359.601z M353.199,357.457
						c2.667,1.54,7.36,1.334,10.46-0.457l51.521-29.745c1.536-0.887,2.417-2.021,2.417-3.111c0-0.862-0.577-1.671-1.626-2.275
						l-53.104-30.66c-2.667-1.54-7.36-1.334-10.46,0.457l-51.521,29.745c-1.536,0.887-2.417,2.02-2.417,3.111
						c0,0.862,0.578,1.671,1.626,2.275L353.199,357.457z"/>
					
						<linearGradient id="SVGID_00000142896948600660399690000008485577043617341073_" gradientUnits="userSpaceOnUse" x1="136.0653" y1="378.1332" x2="243.2624" y2="342.235" gradientTransform="matrix(0.866 0.5 -0.866 0.5 505.6548 24.8744)">
						<stop  offset="0" style="stop-color:#6F2482"/>
						<stop  offset="1" style="stop-color:#812C85"/>
					</linearGradient>
					<path style="fill:url(#SVGID_00000142896948600660399690000008485577043617341073_);" d="M352.83,333.995l-54.004-31.179
						c-2.874-1.659-2.513-4.557,0.805-6.473l52.393-30.249c3.318-1.916,8.338-2.124,11.211-0.465l54.004,31.179
						c2.874,1.659,2.513,4.557-0.805,6.473l-52.393,30.249C360.723,335.446,355.704,335.654,352.83,333.995z"/>
					
						<linearGradient id="SVGID_00000180366335699522595540000014403520121872236201_" gradientUnits="userSpaceOnUse" x1="427.7048" y1="304.337" x2="328.4189" y2="246.9355">
						<stop  offset="0" style="stop-color:#FCBA9D"/>
						<stop  offset="0.5634" style="stop-color:#EE8594"/>
						<stop  offset="1" style="stop-color:#E4608D"/>
					</linearGradient>
					<path style="fill:url(#SVGID_00000180366335699522595540000014403520121872236201_);" d="M419.179,228.364h-61.147v36.161
						v35.288V335.1c2.103-0.051,4.285-0.574,6.009-1.57l52.393-30.249c1.724-0.995,2.642-2.255,2.73-3.469h0.015V228.364z"/>
					
						<linearGradient id="SVGID_00000018929719973810911270000017502527997289369258_" gradientUnits="userSpaceOnUse" x1="427.7048" y1="304.337" x2="328.4189" y2="246.9355">
						<stop  offset="0" style="stop-color:#FCBA9D"/>
						<stop  offset="0.5634" style="stop-color:#EE8594"/>
						<stop  offset="1" style="stop-color:#E4608D"/>
					</linearGradient>
					<path style="fill:url(#SVGID_00000018929719973810911270000017502527997289369258_);" d="M419.179,228.364h-61.147v36.161
						v35.288V335.1c2.103-0.051,4.285-0.574,6.009-1.57l52.393-30.249c1.724-0.995,2.642-2.255,2.73-3.469h0.015V228.364z"/>
					<path style="opacity:0.5;fill:#FCC29F;" d="M418.017,228.364v70.544h-0.015c-0.089,1.214-1.006,2.474-2.73,3.469
						l-52.393,30.249c-1.408,0.813-3.121,1.294-4.847,1.477v0.997c2.103-0.051,4.285-0.574,6.009-1.57l52.393-30.249
						c1.724-0.995,2.642-2.255,2.73-3.469h0.015v-71.448H418.017z"/>
					
						<linearGradient id="SVGID_00000003798831536796020750000008284487421501656976_" gradientUnits="userSpaceOnUse" x1="234.3992" y1="221.8537" x2="377.9318" y2="292.218">
						<stop  offset="0" style="stop-color:#6F2482"/>
						<stop  offset="1" style="stop-color:#AB3588"/>
					</linearGradient>
					<path style="fill:url(#SVGID_00000003798831536796020750000008284487421501656976_);" d="M296.886,228.364v71.448h0.015
						c-0.082,1.123,0.545,2.206,1.925,3.004l54.004,31.179c1.38,0.797,3.258,1.152,5.202,1.105v-35.288v-35.288v-36.161H296.886z"/>
					
						<linearGradient id="SVGID_00000111174412572999119610000005469776459070043571_" gradientUnits="userSpaceOnUse" x1="358.0322" y1="277.647" x2="419.1788" y2="277.647">
						<stop  offset="0" style="stop-color:#FA9F97"/>
						<stop  offset="1" style="stop-color:#FCC29F"/>
					</linearGradient>
					<path style="opacity:0.5;fill:url(#SVGID_00000111174412572999119610000005469776459070043571_);" d="M377.484,324.825v-8.235
						c0.914-0.735,1.603-2.061,1.603-3.176s-0.69-1.646-1.603-1.325v-8.235c0.789-0.634,1.409-1.709,1.565-2.709l18.163-10.487
						c0.155,0.821,0.776,1.179,1.564,0.903v8.235c-0.914,0.735-1.603,2.061-1.603,3.177s0.69,1.646,1.603,1.325v8.235
						c-0.51,0.411-0.934,1.011-1.223,1.651l3.234-1.867c-0.289-0.311-0.727-0.408-1.241-0.228v-8.235
						c0.789-0.634,1.409-1.709,1.564-2.71l18.069-10.432v-0.889l-18.069,10.432c-0.155-0.822-0.775-1.18-1.564-0.904v-8.235
						c0.914-0.735,1.603-2.061,1.603-3.177c0-1.116-0.69-1.645-1.603-1.325v-8.235c0.789-0.634,1.409-1.709,1.564-2.71
						l18.069-10.432v-0.889L401.11,274.78c-0.155-0.822-0.775-1.18-1.564-0.904v-8.235c0.914-0.735,1.603-2.061,1.603-3.177
						s-0.69-1.645-1.603-1.325v-8.235c0.789-0.634,1.409-1.709,1.564-2.71l18.069-10.432v-0.889l-18.069,10.432
						c-0.155-0.822-0.775-1.18-1.564-0.904v-8.235c0.914-0.734,1.603-2.061,1.603-3.176c0-1.116-0.69-1.645-1.603-1.325v-7.301
						h-0.77v7.745c-0.789,0.634-1.409,1.709-1.564,2.71l-18.163,10.487c-0.155-0.821-0.776-1.18-1.565-0.903v-8.235
						c0.914-0.735,1.603-2.061,1.603-3.177s-0.69-1.645-1.603-1.325v-7.302h-0.77v7.746c-0.789,0.634-1.41,1.709-1.565,2.71
						l-17.117,9.883v0.889l17.117-9.883c0.155,0.822,0.776,1.18,1.565,0.903v8.235c-0.914,0.735-1.603,2.061-1.603,3.177
						c0,1.116,0.69,1.645,1.603,1.325v8.235c-0.789,0.634-1.41,1.71-1.565,2.71l-17.117,9.883v0.889l17.117-9.883
						c0.155,0.822,0.776,1.18,1.565,0.903v8.235c-0.914,0.735-1.603,2.061-1.603,3.177c0,1.116,0.69,1.646,1.603,1.325v8.235
						c-0.789,0.635-1.41,1.71-1.565,2.71l-17.117,9.883v0.161v0.727l17.117-9.883c0.155,0.822,0.776,1.18,1.565,0.903v8.235
						c-0.914,0.735-1.603,2.061-1.603,3.177s0.69,1.646,1.603,1.325v8.235c-0.789,0.634-1.41,1.71-1.565,2.71l-17.117,9.883v0.889
						l17.117-9.883c0.155,0.822,0.776,1.18,1.565,0.903v8.235c-0.514,0.413-0.952,1.016-1.241,1.661l3.254-1.879
						C378.439,324.739,377.999,324.645,377.484,324.825z M377.484,265.641c0.914-0.735,1.603-2.061,1.603-3.176
						c0-1.116-0.69-1.646-1.603-1.325v-8.235c0.789-0.634,1.41-1.709,1.565-2.71l18.163-10.487c0.155,0.822,0.776,1.18,1.564,0.903
						v8.235c-0.914,0.735-1.603,2.061-1.603,3.177c0,1.116,0.69,1.645,1.603,1.325v8.235c-0.789,0.634-1.409,1.709-1.564,2.71
						l-18.163,10.487c-0.155-0.822-0.776-1.18-1.565-0.903V265.641z M377.484,291.116c0.914-0.735,1.603-2.061,1.603-3.177
						c0-1.116-0.69-1.646-1.603-1.325v-8.235c0.789-0.634,1.41-1.709,1.565-2.71l18.163-10.487c0.155,0.822,0.776,1.18,1.564,0.903
						v8.235c-0.914,0.735-1.603,2.061-1.603,3.177c0,1.116,0.69,1.646,1.603,1.325v8.235c-0.789,0.634-1.41,1.71-1.564,2.71
						l-18.163,10.487c-0.155-0.822-0.776-1.18-1.565-0.904V291.116z"/>
					<g>
						
							<linearGradient id="SVGID_00000153679368104195060300000003064681773666627516_" gradientUnits="userSpaceOnUse" x1="260.9738" y1="243.9208" x2="397.189" y2="301.7381">
							<stop  offset="0" style="stop-color:#6F2482"/>
							<stop  offset="1" style="stop-color:#AB3588"/>
						</linearGradient>
						<path style="fill:url(#SVGID_00000153679368104195060300000003064681773666627516_);" d="M318.733,313.339v-8.235
							c0.914,0.32,1.603-0.209,1.603-1.325c0-1.116-0.69-2.442-1.603-3.177v-8.235c0.789,0.277,1.41-0.081,1.564-0.903
							l18.164,10.487c0.155,1,0.775,2.075,1.564,2.709v8.235c-0.914-0.32-1.603,0.21-1.603,1.325c0,1.116,0.69,2.442,1.603,3.176
							v8.235c-0.524-0.184-0.97-0.082-1.258,0.244l3.284,1.896c-0.289-0.658-0.733-1.275-1.256-1.695v-8.235
							c0.789,0.277,1.41-0.082,1.565-0.903l15.673,9.049v-0.889l-15.673-9.049c-0.155-1.001-0.776-2.076-1.565-2.71v-8.235
							c0.914,0.32,1.603-0.21,1.603-1.325c0-1.116-0.69-2.442-1.603-3.177v-8.235c0.789,0.277,1.41-0.081,1.565-0.903l15.673,9.049
							v-0.701v-0.188l-15.673-9.049c-0.155-1.001-0.776-2.076-1.565-2.71v-8.235c0.914,0.32,1.603-0.21,1.603-1.325
							s-0.69-2.442-1.603-3.177v-8.235c0.789,0.277,1.41-0.082,1.565-0.903l15.673,9.049v-0.889l-15.673-9.049
							c-0.155-1.001-0.776-2.076-1.565-2.71v-8.235c0.914,0.32,1.603-0.209,1.603-1.325c0-1.116-0.69-2.442-1.603-3.177v-8.235
							c0.789,0.277,1.41-0.082,1.565-0.903l15.673,9.049v-0.889l-15.673-9.049c-0.155-1-0.776-2.075-1.565-2.71v-8.553h-0.77v8.109
							c-0.914-0.32-1.603,0.21-1.603,1.325c0,1.116,0.69,2.442,1.603,3.176v8.235c-0.789-0.276-1.409,0.082-1.564,0.903
							l-18.163-10.487c-0.155-1.001-0.776-2.075-1.565-2.71v-8.235c0.563,0.198,1.04,0.07,1.324-0.317h-2.093v8.108
							c-0.914-0.32-1.603,0.21-1.603,1.325c0,1.116,0.69,2.442,1.603,3.176v8.235c-0.789-0.277-1.41,0.082-1.565,0.903
							l-18.163-10.487c-0.14-0.904-0.669-1.851-1.35-2.497v4.344c0.684,0.144,1.209-0.214,1.349-0.959l18.163,10.487
							c0.155,1,0.776,2.075,1.565,2.71v8.235c-0.914-0.32-1.603,0.209-1.603,1.325c0,1.116,0.69,2.442,1.603,3.177v8.235
							c-0.789-0.277-1.41,0.082-1.565,0.903L298.235,265.1c-0.14-0.904-0.669-1.851-1.35-2.497v4.344
							c0.684,0.144,1.209-0.214,1.349-0.959l18.163,10.487c0.155,1,0.776,2.075,1.565,2.71v8.235
							c-0.914-0.32-1.603,0.21-1.603,1.325c0,1.116,0.69,2.442,1.603,3.177v8.235c-0.789-0.277-1.41,0.082-1.565,0.904
							l-18.163-10.487c-0.14-0.904-0.669-1.851-1.35-2.497v4.344c0.684,0.145,1.209-0.214,1.349-0.959l18.163,10.487
							c0.155,1,0.776,2.075,1.565,2.71v8.235c-0.523-0.184-0.968-0.08-1.256,0.245l3.266,1.886
							C319.684,314.371,319.253,313.757,318.733,313.339z M318.733,254.155c0.914,0.32,1.603-0.21,1.603-1.325
							c0-1.116-0.69-2.442-1.603-3.176v-8.235c0.789,0.277,1.41-0.082,1.565-0.903l18.163,10.487
							c0.155,1.001,0.776,2.075,1.564,2.71v8.235c-0.914-0.32-1.603,0.21-1.603,1.325c0,1.116,0.69,2.442,1.603,3.176v8.235
							c-0.789-0.276-1.409,0.082-1.564,0.903L320.297,265.1c-0.155-1-0.776-2.075-1.565-2.71V254.155z M318.733,279.629
							c0.914,0.32,1.603-0.21,1.603-1.325c0-1.116-0.69-2.442-1.603-3.177v-8.235c0.789,0.277,1.41-0.082,1.565-0.903l18.163,10.487
							c0.155,1,0.776,2.075,1.564,2.71v8.235c-0.914-0.32-1.603,0.21-1.603,1.325c0,1.116,0.69,2.442,1.603,3.176v8.235
							c-0.789-0.277-1.41,0.082-1.564,0.904l-18.163-10.487c-0.155-1.001-0.776-2.076-1.565-2.71V279.629z"/>
						
							<linearGradient id="SVGID_00000167398140434650865800000008371032073369116311_" gradientUnits="userSpaceOnUse" x1="296.8856" y1="228.5643" x2="297.9941" y2="228.5643">
							<stop  offset="0" style="stop-color:#FA9F97"/>
							<stop  offset="1" style="stop-color:#FCC29F"/>
						</linearGradient>
						<path style="fill:url(#SVGID_00000167398140434650865800000008371032073369116311_);" d="M297.994,228.364h-1.108v0.369
							C297.353,228.831,297.747,228.699,297.994,228.364z"/>
					</g>
					
						<linearGradient id="SVGID_00000139973421755544423030000009126891893482130088_" gradientUnits="userSpaceOnUse" x1="64.6171" y1="306.685" x2="171.8141" y2="270.7868" gradientTransform="matrix(0.866 0.5 -0.866 0.5 505.6548 24.8744)">
						<stop  offset="0" style="stop-color:#451368"/>
						<stop  offset="1" style="stop-color:#812C85"/>
					</linearGradient>
					<path style="fill:url(#SVGID_00000139973421755544423030000009126891893482130088_);" d="M352.83,262.547l-54.004-31.18
						c-2.874-1.659-2.513-4.557,0.805-6.473l52.393-30.249c3.318-1.916,8.338-2.124,11.211-0.465l54.004,31.179
						c2.874,1.659,2.513,4.557-0.805,6.473l-52.393,30.249C360.723,263.998,355.704,264.206,352.83,262.547z"/>
					<path style="fill:#FA9F97;" d="M416.434,230.155l-52.393,30.249c-3.318,1.916-8.338,2.124-11.211,0.465l-54.004-31.179
						c-0.957-0.552-1.547-1.243-1.797-1.988c-0.432,1.35,0.145,2.713,1.797,3.667l54.004,31.18
						c2.874,1.659,7.893,1.451,11.211-0.465l52.393-30.249c2.214-1.278,3.103-2.992,2.602-4.485
						C418.715,228.347,417.845,229.34,416.434,230.155z"/>
				</g>
			</g>
		</g>
		<g>
			<g>
				
					<linearGradient id="SVGID_00000025437131993739169860000002877936453351528103_" gradientUnits="userSpaceOnUse" x1="80.9566" y1="304.3493" x2="157.2361" y2="278.8048" gradientTransform="matrix(0.866 0.5 -0.866 0.5 505.6548 24.8744)">
					<stop  offset="0" style="stop-color:#6F2482"/>
					<stop  offset="1" style="stop-color:#812C85"/>
				</linearGradient>
				<path style="fill:url(#SVGID_00000025437131993739169860000002877936453351528103_);" d="M354.329,252.563l-38.429-22.187
					c-2.045-1.181-1.788-3.243,0.573-4.606l37.282-16.577c2.361-1.363,5.933-1.511,7.978-0.331l38.429,17.239
					c2.045,1.181,1.788,3.243-0.573,4.606l-37.282,21.525C359.946,253.595,356.374,253.743,354.329,252.563z"/>
				
					<linearGradient id="SVGID_00000158003097447308882200000015702271503404151687_" gradientUnits="userSpaceOnUse" x1="347.3951" y1="228.8794" x2="419.6799" y2="241.3409">
					<stop  offset="0" style="stop-color:#C5468F"/>
					<stop  offset="1" style="stop-color:#F88B93"/>
				</linearGradient>
				<path style="fill:url(#SVGID_00000158003097447308882200000015702271503404151687_);" d="M401.542,223.097h-43.511v-15.02v25.11
					v20.162c1.497-0.036,3.049-0.409,4.276-1.117l37.282-21.525c1.227-0.708,1.88-1.605,1.943-2.469h0.011V223.097z"/>
				
					<linearGradient id="SVGID_00000160186686399979343880000013357572866893262260_" gradientUnits="userSpaceOnUse" x1="289.5417" y1="205.1673" x2="363.3387" y2="241.345">
					<stop  offset="0" style="stop-color:#6F2482"/>
					<stop  offset="1" style="stop-color:#AB3588"/>
				</linearGradient>
				<path style="fill:url(#SVGID_00000160186686399979343880000013357572866893262260_);" d="M314.52,223.097v5.142h0.011
					c-0.058,0.799,0.388,1.57,1.37,2.137l38.429,22.187c0.982,0.567,2.318,0.82,3.702,0.786v-20.162v15.641v-25.731H314.52z"/>
				
					<linearGradient id="SVGID_00000102510272705044649150000017177901862276797626_" gradientUnits="userSpaceOnUse" x1="74.8203" y1="296.2379" x2="151.0998" y2="270.6934" gradientTransform="matrix(0.866 0.5 -0.866 0.5 505.6548 24.8744)">
					<stop  offset="0" style="stop-color:#451368"/>
					<stop  offset="1" style="stop-color:#812C85"/>
				</linearGradient>
				<path style="fill:url(#SVGID_00000102510272705044649150000017177901862276797626_);" d="M354.329,247.421l-38.429-22.187
					c-2.045-1.181-1.788-3.243,0.573-4.606l37.282-21.525c2.361-1.363,5.933-1.511,7.978-0.331l38.429,22.187
					c2.045,1.181,1.788,3.243-0.573,4.606l-37.282,21.525C359.946,248.454,356.374,248.602,354.329,247.421z"/>
				<path style="fill:#FA9F97;" d="M399.589,224.1l-37.282,21.525c-2.361,1.363-5.933,1.511-7.978,0.331l-38.429-22.187
					c-0.629-0.363-1.014-0.814-1.213-1.298c-0.406,1.011-0.025,2.049,1.213,2.764l38.429,22.187
					c2.045,1.181,5.617,1.033,7.978-0.331l37.282-21.525c1.635-0.944,2.235-2.219,1.786-3.308
					C401.11,222.916,400.52,223.562,399.589,224.1z"/>
			</g>
		</g>
		<path style="fill:#BD458C;" d="M351.037,229.663l20.799-12.008c1.628-0.94,1.424-2.582-0.456-3.667l0,0
			c-1.88-1.085-4.724-1.203-6.352-0.263l-20.799,12.008c-1.628,0.94-1.424,2.582,0.456,3.667l0,0
			C346.565,230.485,349.409,230.602,351.037,229.663z"/>
		
			<linearGradient id="SVGID_00000014592249977952982310000003978769304275831938_" gradientUnits="userSpaceOnUse" x1="345.8574" y1="220.6039" x2="385.7732" y2="221.5673">
			<stop  offset="0" style="stop-color:#F88B93"/>
			<stop  offset="1" style="stop-color:#C5468F"/>
		</linearGradient>
		<path style="fill:url(#SVGID_00000014592249977952982310000003978769304275831938_);" d="M344.229,228.196l20.799-12.008
			c1.628-0.94,4.472-0.822,6.352,0.263c0.421,0.243,0.745,0.517,0.996,0.801c1.003-0.958,0.639-2.322-0.996-3.266
			c-1.88-1.085-4.724-1.203-6.352-0.263l-20.799,12.008c-1.263,0.729-1.41,1.879-0.54,2.866
			C343.839,228.454,344.017,228.319,344.229,228.196z"/>
		<g>
			<path style="fill:#FFFFFF;" d="M330.283,118.685v2.011l-8.531-2.011l-7.057,4.847l0.282,74.444l-1.693,11.928l-2.97,5.349
				l18.315-10.601l0.006-0.031c0.234-0.117,0.473-0.215,0.702-0.347c3.882-2.241,6.199-6.254,6.199-10.736v-72.137
				C333.816,120.434,332.122,119.413,330.283,118.685z"/>
			<g>
				<g>
					
						<linearGradient id="SVGID_00000013899148732642786420000010578802680387457181_" gradientUnits="userSpaceOnUse" x1="336.8665" y1="200.2018" x2="390.5447" y2="197.1801">
						<stop  offset="0.1331" style="stop-color:#E4608D"/>
						<stop  offset="0.1416" style="stop-color:#E5648E"/>
						<stop  offset="0.2033" style="stop-color:#EC7F92"/>
						<stop  offset="0.2735" style="stop-color:#F29596"/>
						<stop  offset="0.3561" style="stop-color:#F7A699"/>
						<stop  offset="0.4584" style="stop-color:#FAB19B"/>
						<stop  offset="0.6018" style="stop-color:#FBB89D"/>
						<stop  offset="1" style="stop-color:#FCBA9D"/>
					</linearGradient>
					<path style="fill:url(#SVGID_00000013899148732642786420000010578802680387457181_);" d="M372.935,181.66l-29.798,11.351
						l-0.007,20.121l0.018-0.007c0.018,0.709,0.527,1.452,1.537,2.036c1.88,1.085,4.724,1.203,6.352,0.263l20.799-12.008
						c0.728-0.42,1.069-0.982,1.079-1.57l0.02-0.008L372.935,181.66z"/>
					
						<linearGradient id="SVGID_00000144336098090209432340000008568120054047836063_" gradientUnits="userSpaceOnUse" x1="-634.4222" y1="279.637" x2="-599.4056" y2="267.9106" gradientTransform="matrix(-0.866 0.5 1 0.5774 -449.9727 337.6708)">
						<stop  offset="0" style="stop-color:#C5468F"/>
						<stop  offset="1" style="stop-color:#F88B93"/>
					</linearGradient>
					<path style="fill:url(#SVGID_00000144336098090209432340000008568120054047836063_);" d="M351.037,195.264l20.799-12.008
						c1.628-0.94,1.424-2.582-0.456-3.667l0,0c-1.88-1.085-4.724-1.203-6.352-0.263l-20.799,12.008
						c-1.628,0.94-1.424,2.582,0.456,3.667l0,0C346.565,196.087,349.409,196.204,351.037,195.264z"/>
				</g>
				<g>
					
						<linearGradient id="SVGID_00000037667059153444096160000010675763214072669606_" gradientUnits="userSpaceOnUse" x1="325.4024" y1="176.3251" x2="402.1141" y2="176.3251">
						<stop  offset="0" style="stop-color:#751480"/>
						<stop  offset="0.032" style="stop-color:#7C1A81"/>
						<stop  offset="0.2533" style="stop-color:#A84287"/>
						<stop  offset="0.4668" style="stop-color:#CB628C"/>
						<stop  offset="0.6676" style="stop-color:#E47990"/>
						<stop  offset="0.8507" style="stop-color:#F38692"/>
						<stop  offset="1" style="stop-color:#F88B93"/>
					</linearGradient>
					<path style="fill:url(#SVGID_00000037667059153444096160000010675763214072669606_);" d="M378.23,153.243l-41.331,11.965
						v28.108l0.018-0.006c-0.043,0.563,0.336,1.166,1.144,1.633l6.57,3.793c1.405,0.811,3.53,0.899,4.746,0.197l28.031-16.102
						c0.535-0.309,0.79-0.72,0.805-1.152l0.016-0.005V153.243z"/>
					
						<linearGradient id="SVGID_00000037691300008564726040000015979630369324949642_" gradientUnits="userSpaceOnUse" x1="-695.97" y1="258.3641" x2="-631.787" y2="254.7512" gradientTransform="matrix(-0.866 0.5 1 0.5774 -480.0689 346.1503)">
						<stop  offset="0" style="stop-color:#451368"/>
						<stop  offset="1" style="stop-color:#812C85"/>
					</linearGradient>
					<path style="fill:url(#SVGID_00000037691300008564726040000015979630369324949642_);" d="M349.377,170.643l28.031-16.102
						c1.217-0.702,1.064-1.929-0.341-2.74l-6.57-3.793c-1.405-0.811-3.53-0.899-4.746-0.197l-28.031,16.102
						c-1.217,0.702-1.064,1.929,0.341,2.74l6.57,3.793C346.036,171.257,348.161,171.345,349.377,170.643z"/>
				</g>
			</g>
			<path style="fill:#FFFFFF;" d="M316.012,197.673l-12.101-6.986c-0.888-0.514-1.946-0.439-2.749,0.087l-0.007-0.004
				l-18.329,10.614l8.557,7.648l12.914,5.013l7.551-3.74l1.723-7.975l2.44,1.409C316.012,201.716,316.012,199.694,316.012,197.673z"
				/>
			<g>
				<path style="fill:#FFFFFF;" d="M360.831,112.755l-11.952-6.947c-3.714-2.144-8.112-2.213-11.885-0.253l-0.032-0.011
					l-0.316,0.183c-0.054,0.03-0.111,0.05-0.164,0.081c-0.055,0.032-0.102,0.072-0.156,0.104l-18.131,10.481l14.682,4.399
					l11.151,7.623l4.422,13.643l1.034,23.026l18.429-10.656l-0.001-0.012c0.795-0.451,1.338-1.296,1.338-2.276v-24.788
					C369.25,121.346,366.02,115.751,360.831,112.755z"/>
				<g>
					
						<linearGradient id="SVGID_00000165195967973679095040000002673485513748169372_" gradientUnits="userSpaceOnUse" x1="252.1659" y1="144.1517" x2="395.5552" y2="193.4535">
						<stop  offset="0" style="stop-color:#751480"/>
						<stop  offset="0.032" style="stop-color:#7C1A81"/>
						<stop  offset="0.2533" style="stop-color:#A84287"/>
						<stop  offset="0.4668" style="stop-color:#CB628C"/>
						<stop  offset="0.6676" style="stop-color:#E47990"/>
						<stop  offset="0.8507" style="stop-color:#F38692"/>
						<stop  offset="1" style="stop-color:#F88B93"/>
					</linearGradient>
					<path style="fill:url(#SVGID_00000165195967973679095040000002673485513748169372_);" d="M304.852,216.54
						c-2.129,0-4.258-0.56-6.199-1.681l-15.656-9.039c-1.257-0.725-1.687-2.332-0.961-3.588c0.724-1.256,2.331-1.689,3.588-0.962
						l15.656,9.039c2.235,1.289,4.907,1.291,7.144,0c2.237-1.291,3.572-3.604,3.572-6.187v-76.995c0-4.482,2.318-8.495,6.199-10.736
						c3.881-2.241,8.515-2.241,12.396,0l11.953,6.947c5.189,2.996,8.419,8.591,8.419,14.597v24.788c0,1.451-1.175,2.626-2.626,2.626
						s-2.626-1.175-2.626-2.626v-24.788c0-4.135-2.225-7.987-5.805-10.055l-11.953-6.947c-2.225-1.286-4.895-1.283-7.132,0.007
						c-2.236,1.291-3.572,3.604-3.572,6.187v76.995c0,4.482-2.316,8.495-6.199,10.736C309.111,215.979,306.98,216.54,304.852,216.54
						z"/>
				</g>
			</g>
		</g>
	</g>
</g>
<linearGradient id="SVGID_00000171706329464945505640000017841716282971782575_" gradientUnits="userSpaceOnUse" x1="-156.3044" y1="-672.89" x2="-78.2476" y2="-672.89" gradientTransform="matrix(0.866 -0.5 0 1.1547 290.2397 1027.7382)">
	<stop  offset="0" style="stop-color:#F88B93"/>
	<stop  offset="0.147" style="stop-color:#F99595"/>
	<stop  offset="0.6976" style="stop-color:#FBB69C"/>
	<stop  offset="1" style="stop-color:#FCC29F"/>
</linearGradient>
<path style="fill:url(#SVGID_00000171706329464945505640000017841716282971782575_);" d="M155.446,329.142
	c-0.195,0-0.386-0.102-0.49-0.282c-0.155-0.27-0.064-0.615,0.207-0.771l66.468-38.375c0.271-0.154,0.616-0.062,0.771,0.207
	c0.155,0.27,0.064,0.615-0.207,0.771l-66.468,38.375C155.638,329.118,155.542,329.142,155.446,329.142z"/>
</svg>
